<?xml version='1.0' encoding='utf-8'?>
<svg xmlns="http://www.w3.org/2000/svg" width="136.29mm" height="174.7mm" clip-rule="evenodd" fill-rule="evenodd" image-rendering="optimizeQuality" shape-rendering="geometricPrecision" text-rendering="geometricPrecision" version="1.1" viewBox="0 0 16508 21160">
 <defs>
  <style type="text/css">
   
    .str0 {stroke:#373435;stroke-width:121.123}
    .str1 {stroke:black;stroke-width:121.123}
    .fil2 {fill:none}
    .fil1 {fill:#FEFEFE}
    .fil40 {fill:#A4A4A3}
    .fil55 {fill:#A6A5A3}
    .fil14 {fill:#A6A6A3}
    .fil39 {fill:#A8A7A4}
    .fil13 {fill:#A9A9A4}
    .fil60 {fill:#ABAAA4}
    .fil38 {fill:#ABABA4}
    .fil12 {fill:#ADACA4}
    .fil37 {fill:#AFAEA5}
    .fil11 {fill:#B1B0A5}
    .fil36 {fill:#B2B1A5}
    .fil10 {fill:#B4B3A5}
    .fil57 {fill:#B6B4A5}
    .fil35 {fill:#B6B5A5}
    .fil9 {fill:#B8B6A6}
    .fil34 {fill:#BAB8A6}
    .fil54 {fill:#BBB9A6}
    .fil8 {fill:#BBBAA6}
    .fil33 {fill:#BDBBA6}
    .fil7 {fill:#BFBDA7}
    .fil56 {fill:#C1BEA7}
    .fil32 {fill:#C1BFA7}
    .fil6 {fill:#C3C0A7}
    .fil31 {fill:#C4C2A7}
    .fil58 {fill:#C6C3A8}
    .fil5 {fill:#C6C4A8}
    .fil30 {fill:#C8C5A8}
    .fil4 {fill:#CAC7A8}
    .fil59 {fill:#CCC8A8}
    .fil29 {fill:#CCC9A8}
    .fil3 {fill:#CDCAA9}
    .fil28 {fill:#CFCCA9}
    .fil15 {fill:#D2CEA9}
    .fil41 {fill:#D4D0A9}
    .fil16 {fill:#D6D2AA}
    .fil42 {fill:#D7D3AA}
    .fil17 {fill:#D9D5AA}
    .fil43 {fill:#DBD7AA}
    .fil18 {fill:#DDD8AB}
    .fil44 {fill:#DFDAAB}
    .fil19 {fill:#E0DCAB}
    .fil45 {fill:#E2DDAB}
    .fil20 {fill:#E4DFAB}
    .fil46 {fill:#E6E1AC}
    .fil21 {fill:#E8E2AC}
    .fil47 {fill:#E9E4AC}
    .fil22 {fill:#EBE6AC}
    .fil48 {fill:#EDE7AD}
    .fil23 {fill:#EFE9AD}
    .fil49 {fill:#F1EBAD}
    .fil24 {fill:#F2ECAD}
    .fil50 {fill:#F4EEAE}
    .fil25 {fill:#F6F0AE}
    .fil51 {fill:#F8F1AE}
    .fil26 {fill:#FAF3AE}
    .fil52 {fill:#FBF5AF}
    .fil27 {fill:#FDF6AF}
    .fil0 {fill:#FF00EA}
    .fil53 {fill:#FFF8AF}
   
  </style>
    <clipPath id="c">
     <path d="m10381 548c1469 498 2218 1727 2849 3022 513 1054 635 1733 1410 2634 355 413 981 1095 1396 1695 91 132 166 270 226 414 288 691 221 1492-63 2186-9 21-8 27-8 5 0-764-3557-1383-7944-1383-4258 0-7732 583-7935 1315-17 60-8 52-34-16-258-676-308-1442-32-2107 60-144 135-282 226-414 415-600 1041-1282 1396-1695 775-901 898-1580 1411-2634 630-1295 1379-2524 2848-3022 153-52 295-98 423-147 1127-430 2229-464 3299-39 157 62 335 119 532 186z"/>
    </clipPath>
     <clipPath id="d">
      <path d="m8254 9056c4388 0 7946 623 7946 1392 0 770-3558 1393-7946 1393s-7946-623-7946-1393c0-769 3558-1392 7946-1392z"/>
     </clipPath>
 </defs>
   <path class="fil0" d="m10381 548c1469 498 2218 1727 2849 3022 513 1054 635 1733 1410 2634 355 413 981 1095 1396 1695 91 132 166 270 226 414 288 691 221 1492-63 2186-9 21-8 27-8 5 0-764-3557-1383-7944-1383-4258 0-7732 583-7935 1315-17 60-8 52-34-16-258-676-308-1442-32-2107 60-144 135-282 226-414 415-600 1041-1282 1396-1695 775-901 898-1580 1411-2634 630-1295 1379-2524 2848-3022 153-52 295-98 423-147 1127-430 2229-464 3299-39 157 62 335 119 532 186z"/>
   <g clip-path="url(#c)">
      <circle class="fil1" cx="7165" cy="6102" r="2094"/>
      <ellipse class="fil1" cx="13446" cy="9467" rx="1709" ry="1528"/>
      <ellipse class="fil1" transform="matrix(.87834 -.47804 .47804 .87834 14044 5119)" rx="1282" ry="1538"/>
      <circle class="fil1" cx="10259" cy="1153" r="2615"/>
      <ellipse class="fil1" cx="2230" cy="5034" rx="1111" ry="2222"/>
      <ellipse class="fil1" cx="4281" cy="10247" rx="2222" ry="1795"/>
   </g>
   <path class="fil2 str0" d="m10381 548c1469 498 2218 1727 2849 3022 513 1054 635 1733 1410 2634 355 413 981 1095 1396 1695 91 132 166 270 226 414 288 691 221 1492-63 2186-9 21-8 27-8 5 0-764-3557-1383-7944-1383-4258 0-7732 583-7935 1315-17 60-8 52-34-16-258-676-308-1442-32-2107 60-144 135-282 226-414 415-600 1041-1282 1396-1695 775-901 898-1580 1411-2634 630-1295 1379-2524 2848-3022 153-52 295-98 423-147 1127-430 2229-464 3299-39 157 62 335 119 532 186z"/>
    <g clip-path="url(#d)">
     <path class="fil3" d="m8254 10448l-11237-6 2-36 11235 42z"/>
     <path class="fil4" d="m8254 10448l-11235-36 4-30 11231 66z"/>
     <path class="fil5" d="m8254 10448l-11232-60 7-30 11225 90z"/>
     <path class="fil6" d="m8254 10448l-11227-84 9-30 11218 114z"/>
     <path class="fil7" d="m8254 10448l-11220-108 11-30 11209 138z"/>
     <path class="fil8" d="m8254 10448l-11211-132 12-30 11199 162z"/>
     <path class="fil9" d="m8254 10448l-11201-156 15-31 11186 187z"/>
     <path class="fil10" d="m8254 10448l-11189-181 16-30 11173 211z"/>
     <path class="fil11" d="m8254 10448l-11176-205 19-30 11157 235z"/>
     <path class="fil12" d="m8254 10448l-11161-229 21-30 11140 259z"/>
     <path class="fil13" d="m8254 10448l-11144-253 23-30 11121 283z"/>
     <path class="fil14" d="m8254 10448l-11125-277 25-29 11100 306z"/>
     <path class="fil15" d="m8254 10448l-11105-301 27-29 11078 330z"/>
     <path class="fil16" d="m8254 10448l-11083-324 29-30 11054 354z"/>
     <path class="fil17" d="m8254 10448l-11060-348 32-30 11028 378z"/>
     <path class="fil18" d="m8254 10448l-11034-372 33-30 11001 402z"/>
     <path class="fil19" d="m8254 10448l-11007-396 35-29 10972 425z"/>
     <path class="fil20" d="m8254 10448l-10979-419 38-30 10941 449z"/>
     <path class="fil21" d="m8254 10448l-10949-443 40-29 10909 472z"/>
     <path class="fil22" d="m8254 10448l-10917-466 42-30 10875 496z"/>
     <path class="fil23" d="m8254 10448l-10883-490 44-29 10839 519z"/>
     <path class="fil24" d="m8254 10448l-10848-513 46-29 10802 542z"/>
     <path class="fil25" d="m8254 10448l-10811-537 48-29 10763 566z"/>
     <path class="fil26" d="m8254 10448l-10773-560 50-29 10723 589z"/>
     <path class="fil27" d="m8254 10448l-10733-583 52-29 10681 612z"/>
     <path class="fil28" d="m8254 10448l-10691-606 54-29 10637 635z"/>
     <path class="fil29" d="m8254 10448l-10648-629 56-28 10592 657z"/>
     <path class="fil30" d="m8254 10448l-10603-652 58-28 10545 680z"/>
     <path class="fil31" d="m8254 10448l-10557-675 60-28 10497 703z"/>
     <path class="fil32" d="m8254 10448l-10509-697 62-28 10447 725z"/>
     <path class="fil33" d="m8254 10448l-10459-720 64-28 10395 748z"/>
     <path class="fil34" d="m8254 10448l-10408-742 66-28 10342 770z"/>
     <path class="fil35" d="m8254 10448l-10355-765 68-27 10287 792z"/>
     <path class="fil36" d="m8254 10448l-10301-787 70-27 10231 814z"/>
     <path class="fil37" d="m8254 10448l-10245-809 72-27 10173 836z"/>
     <path class="fil38" d="m8254 10448l-10187-831 73-27 10114 858z"/>
     <path class="fil39" d="m8254 10448l-10128-853 75-27 10053 880z"/>
     <path class="fil40" d="m8254 10448l-10068-874 78-27 9990 901z"/>
     <path class="fil41" d="m8254 10448l-10006-896 79-27 9927 923z"/>
     <path class="fil42" d="m8254 10448l-9942-917 81-27 9861 944z"/>
     <path class="fil43" d="m8254 10448l-9877-939 83-26 9794 965z"/>
     <path class="fil44" d="m8254 10448l-9811-960 85-26 9726 986z"/>
     <path class="fil45" d="m8254 10448l-9743-981 87-26 9656 1007z"/>
     <path class="fil46" d="m8254 10448l-9674-1002 89-26 9585 1028z"/>
     <path class="fil47" d="m8254 10448l-9603-1023 91-25 9512 1048z"/>
     <path class="fil48" d="m8254 10448l-9530-1043 92-26 9438 1069z"/>
     <path class="fil49" d="m8254 10448l-9457-1064 94-25 9363 1089z"/>
     <path class="fil50" d="m8254 10448l-9381-1084 95-25 9286 1109z"/>
     <path class="fil51" d="m8254 10448l-9305-1104 98-25 9207 1129z"/>
     <path class="fil52" d="m8254 10448l-9227-1124 100-25 9127 1149z"/>
     <path class="fil53" d="m8254 10448l-9147-1144 101-24 9046 1168z"/>
     <path class="fil3" d="m8254 10448l-9067-1163 103-25 8964 1188z"/>
     <path class="fil4" d="m8254 10448l-8984-1183 104-24 8880 1207z"/>
     <path class="fil5" d="m8254 10448l-8901-1202 106-24 8795 1226z"/>
     <path class="fil6" d="m8254 10448l-8816-1221 108-24 8708 1245z"/>
     <path class="fil7" d="m8254 10448l-8730-1240 109-23 8621 1263z"/>
     <path class="fil54" d="m8254 10448l-8642-1259 111-23 8531 1282z"/>
     <path class="fil9" d="m8254 10448l-8554-1277 113-23 8441 1300z"/>
     <path class="fil10" d="m8254 10448l-8464-1295 115-23 8349 1318z"/>
     <path class="fil11" d="m8254 10448l-8372-1313 116-23 8256 1336z"/>
     <path class="fil12" d="m8254 10448l-8280-1331 118-22 8162 1353z"/>
     <path class="fil13" d="m8254 10448l-8186-1349 119-22 8067 1371z"/>
     <path class="fil14" d="m8254 10448l-8091-1367 121-21 7970 1388z"/>
     <path class="fil15" d="m8254 10448l-7994-1384 122-21 7872 1405z"/>
     <path class="fil16" d="m8254 10448l-7897-1401 124-21 7773 1422z"/>
     <path class="fil17" d="m8254 10448l-7798-1418 125-21 7673 1439z"/>
     <path class="fil18" d="m8254 10448l-7698-1435 126-20 7572 1455z"/>
     <path class="fil19" d="m8254 10448l-7597-1451 127-20 7470 1471z"/>
     <path class="fil20" d="m8254 10448l-7495-1467 129-20 7366 1487z"/>
     <path class="fil21" d="m8254 10448l-7392-1483 131-20 7261 1503z"/>
     <path class="fil22" d="m8254 10448l-7287-1499 132-19 7155 1518z"/>
     <path class="fil23" d="m8254 10448l-7182-1515 133-19 7049 1534z"/>
     <path class="fil24" d="m8254 10448l-7075-1530 134-19 6941 1549z"/>
     <path class="fil25" d="m8254 10448l-6968-1545 136-19 6832 1564z"/>
     <path class="fil26" d="m8254 10448l-6859-1560 137-18 6722 1578z"/>
     <path class="fil27" d="m8254 10448l-6749-1575 138-18 6611 1593z"/>
     <path class="fil28" d="m8254 10448l-6638-1589 139-18 6499 1607z"/>
     <path class="fil29" d="m8254 10448l-6527-1603 141-17 6386 1620z"/>
     <path class="fil30" d="m8254 10448l-6414-1617 142-17 6272 1634z"/>
     <path class="fil31" d="m8254 10448l-6300-1631 143-16 6157 1647z"/>
     <path class="fil32" d="m8254 10448l-6185-1644 144-17 6041 1661z"/>
     <path class="fil33" d="m8254 10448l-6070-1657 146-16 5924 1673z"/>
     <path class="fil34" d="m8254 10448l-5953-1670 146-16 5807 1686z"/>
     <path class="fil35" d="m8254 10448l-5836-1683 148-15 5688 1698z"/>
     <path class="fil36" d="m8254 10448l-5718-1695 149-16 5569 1711z"/>
     <path class="fil37" d="m8254 10448l-5599-1708 150-14 5449 1722z"/>
     <path class="fil38" d="m8254 10448l-5479-1719 151-15 5328 1734z"/>
     <path class="fil39" d="m8254 10448l-5358-1731 152-14 5206 1745z"/>
     <path class="fil40" d="m8254 10448l-5236-1742 153-14 5083 1756z"/>
     <path class="fil41" d="m8254 10448l-5114-1754 154-13 4960 1767z"/>
     <path class="fil42" d="m8254 10448l-4991-1764 155-14 4836 1778z"/>
     <path class="fil43" d="m8254 10448l-4867-1775 156-13 4711 1788z"/>
     <path class="fil44" d="m8254 10448l-4742-1785 157-13 4585 1798z"/>
     <path class="fil45" d="m8254 10448l-4617-1795 158-13 4459 1808z"/>
     <path class="fil46" d="m8254 10448l-4491-1805 159-12 4332 1817z"/>
     <path class="fil47" d="m8254 10448l-4364-1815 159-11 4205 1826z"/>
     <path class="fil48" d="m8254 10448l-4236-1824 160-11 4076 1835z"/>
     <path class="fil49" d="m8254 10448l-4108-1833 160-11 3948 1844z"/>
     <path class="fil50" d="m8254 10448l-3980-1842 162-10 3818 1852z"/>
     <path class="fil51" d="m8254 10448l-3850-1850 162-10 3688 1860z"/>
     <path class="fil52" d="m8254 10448l-3721-1858 163-10 3558 1868z"/>
     <path class="fil53" d="m8254 10448l-3590-1866 163-10 3427 1876z"/>
     <path class="fil3" d="m8254 10448l-3459-1874 164-9 3295 1883z"/>
     <path class="fil4" d="m8254 10448l-3328-1881 165-9 3163 1890z"/>
     <path class="fil5" d="m8254 10448l-3196-1888 166-8 3030 1896z"/>
     <path class="fil6" d="m8254 10448l-3063-1895 166-8 2897 1903z"/>
     <path class="fil7" d="m8254 10448l-2930-1901 166-8 2764 1909z"/>
     <path class="fil8" d="m8254 10448l-2797-1907 167-8 2630 1915z"/>
     <path class="fil9" d="m8254 10448l-2663-1913 167-7 2496 1920z"/>
     <path class="fil10" d="m8254 10448l-2529-1919 168-6 2361 1925z"/>
     <path class="fil11" d="m8254 10448l-2395-1924 169-6 2226 1930z"/>
     <path class="fil12" d="m8254 10448l-2260-1929 169-6 2091 1935z"/>
     <path class="fil13" d="m8254 10448l-2125-1934 170-5 1955 1939z"/>
     <path class="fil55" d="m8254 10448l-1989-1938 170-5 1819 1943z"/>
     <path class="fil15" d="m8254 10448l-1853-1942 170-5 1683 1947z"/>
     <path class="fil16" d="m8254 10448l-1717-1946 171-5 1546 1951z"/>
     <path class="fil17" d="m8254 10448l-1581-1950 171-4 1410 1954z"/>
     <path class="fil18" d="m8254 10448l-1444-1953 171-4 1273 1957z"/>
     <path class="fil19" d="m8254 10448l-1307-1956 171-3 1136 1959z"/>
     <path class="fil20" d="m8254 10448l-1170-1959 172-3 998 1962z"/>
     <path class="fil21" d="m8254 10448l-1033-1961 172-3 861 1964z"/>
     <path class="fil22" d="m8254 10448l-895-1963 172-2 723 1965z"/>
     <path class="fil23" d="m8254 10448l-758-1965 172-2 586 1967z"/>
     <path class="fil24" d="m8254 10448l-620-1966 172-2 448 1968z"/>
     <path class="fil25" d="m8254 10448l-482-1968 172-1 310 1969z"/>
     <path class="fil26" d="m8254 10448l-345-1968 173-1 172 1969z"/>
     <path class="fil27" d="m8254 10448l-207-1969h173l34 1969z"/>
     <path class="fil28" d="m8254 10448l-69-1969h172l-103 1969z"/>
     <path class="fil29" d="m8254 10448l69-1969h172l-241 1969z"/>
     <path class="fil30" d="m8254 10448l207-1969 172 1-379 1968z"/>
     <path class="fil31" d="m8254 10448l345-1968 172 1-517 1967z"/>
     <path class="fil56" d="m8254 10448l483-1968 172 2-655 1966z"/>
     <path class="fil33" d="m8254 10448l620-1966 172 1-792 1965z"/>
     <path class="fil34" d="m8254 10448l758-1965 172 2-930 1963z"/>
     <path class="fil57" d="m8254 10448l895-1963 172 2-1067 1961z"/>
     <path class="fil36" d="m8254 10448l1033-1961 171 3-1204 1958z"/>
     <path class="fil37" d="m8254 10448l1170-1959 171 4-1341 1955z"/>
     <path class="fil38" d="m8254 10448l1307-1956 171 4-1478 1952z"/>
     <path class="fil39" d="m8254 10448l1444-1953 171 4-1615 1949z"/>
     <path class="fil40" d="m8254 10448l1581-1950 170 5-1751 1945z"/>
     <path class="fil41" d="m8254 10448l1717-1946 170 5-1887 1941z"/>
     <path class="fil42" d="m8254 10448l1853-1942 170 5-2023 1937z"/>
     <path class="fil43" d="m8254 10448l1989-1938 170 5-2159 1933z"/>
     <path class="fil44" d="m8254 10448l2125-1934 169 6-2294 1928z"/>
     <path class="fil45" d="m8254 10448l2260-1929 169 6-2429 1923z"/>
     <path class="fil46" d="m8254 10448l2395-1924 168 6-2563 1918z"/>
     <path class="fil47" d="m8254 10448l2529-1919 168 7-2697 1912z"/>
     <path class="fil48" d="m8254 10448l2664-1913 167 7-2831 1906z"/>
     <path class="fil49" d="m8254 10448l2797-1907 167 7-2964 1900z"/>
     <path class="fil50" d="m8254 10448l2931-1901 166 8-3097 1893z"/>
     <path class="fil51" d="m8254 10448l3064-1895 165 9-3229 1886z"/>
     <path class="fil52" d="m8254 10448l3196-1888 165 9-3361 1879z"/>
     <path class="fil53" d="m8254 10448l3328-1881 164 9-3492 1872z"/>
     <path class="fil3" d="m8254 10448l3459-1874 164 10-3623 1864z"/>
     <path class="fil4" d="m8254 10448l3590-1866 163 10-3753 1856z"/>
     <path class="fil58" d="m8254 10448l3721-1858 162 10-3883 1848z"/>
     <path class="fil6" d="m8254 10448l3851-1850 161 10-4012 1840z"/>
     <path class="fil7" d="m8254 10448l3980-1842 161 11-4141 1831z"/>
     <path class="fil8" d="m8254 10448l4108-1833 161 11-4269 1822z"/>
     <path class="fil9" d="m8254 10448l4237-1824 159 12-4396 1812z"/>
     <path class="fil10" d="m8254 10448l4364-1815 158 12-4522 1803z"/>
     <path class="fil11" d="m8254 10448l4491-1805 157 12-4648 1793z"/>
     <path class="fil12" d="m8254 10448l4617-1795 156 12-4773 1783z"/>
     <path class="fil13" d="m8254 10448l4742-1785 156 13-4898 1772z"/>
     <path class="fil14" d="m8254 10448l4867-1775 155 13-5022 1762z"/>
     <path class="fil15" d="m8254 10448l4991-1764 154 13-5145 1751z"/>
     <path class="fil16" d="m8254 10448l5114-1754 153 14-5267 1740z"/>
     <path class="fil17" d="m8254 10448l5236-1742 152 14-5388 1728z"/>
     <path class="fil18" d="m8254 10448l5358-1731 151 14-5509 1717z"/>
     <path class="fil19" d="m8254 10448l5479-1719 150 14-5629 1705z"/>
     <path class="fil20" d="m8254 10448l5599-1708 149 16-5748 1692z"/>
     <path class="fil21" d="m8254 10448l5718-1695 148 15-5866 1680z"/>
     <path class="fil22" d="m8254 10448l5836-1683 147 16-5983 1667z"/>
     <path class="fil23" d="m8254 10448l5954-1670 145 16-6099 1654z"/>
     <path class="fil24" d="m8254 10448l6070-1657 144 16-6214 1641z"/>
     <path class="fil25" d="m8254 10448l6186-1644 143 17-6329 1627z"/>
     <path class="fil26" d="m8254 10448l6300-1631 142 17-6442 1614z"/>
     <path class="fil27" d="m8254 10448l6414-1617 141 17-6555 1600z"/>
     <path class="fil28" d="m8254 10448l6527-1603 139 18-6666 1585z"/>
     <path class="fil59" d="m8254 10448l6638-1589 139 18-6777 1571z"/>
     <path class="fil30" d="m8254 10448l6749-1575 137 19-6886 1556z"/>
     <path class="fil31" d="m8254 10448l6859-1560 136 19-6995 1541z"/>
     <path class="fil32" d="m8254 10448l6968-1545 134 19-7102 1526z"/>
     <path class="fil33" d="m8254 10448l7075-1530 134 19-7209 1511z"/>
     <path class="fil34" d="m8254 10448l7182-1515 132 20-7314 1495z"/>
     <path class="fil35" d="m8254 10448l7287-1499 131 20-7418 1479z"/>
     <path class="fil36" d="m8254 10448l7392-1483 129 20-7521 1463z"/>
     <path class="fil37" d="m8254 10448l7495-1467 128 20-7623 1447z"/>
     <path class="fil60" d="m8254 10448l7597-1451 127 21-7724 1430z"/>
     <path class="fil39" d="m8254 10448l7698-1435 125 21-7823 1414z"/>
     <path class="fil40" d="m8254 10448l7798-1418 124 21-7922 1397z"/>
     <path class="fil41" d="m8254 10448l7897-1401 122 21-8019 1380z"/>
     <path class="fil42" d="m8254 10448l7994-1384 121 22-8115 1362z"/>
     <path class="fil43" d="m8254 10448l8091-1367 119 22-8210 1345z"/>
     <path class="fil44" d="m8254 10448l8186-1349 117 22-8303 1327z"/>
     <path class="fil45" d="m8254 10448l8280-1331 115 22-8395 1309z"/>
     <path class="fil46" d="m8254 10448l8372-1313 115 22-8487 1291z"/>
     <path class="fil47" d="m8254 10448l8464-1295 112 23-8576 1272z"/>
     <path class="fil48" d="m8254 10448l8554-1277 111 23-8665 1254z"/>
     <path class="fil49" d="m8254 10448l8643-1259 109 24-8752 1235z"/>
     <path class="fil50" d="m8254 10448l8730-1240 108 24-8838 1216z"/>
     <path class="fil51" d="m8254 10448l8816-1221 106 24-8922 1197z"/>
     <path class="fil52" d="m8254 10448l8901-1202 104 24-9005 1178z"/>
     <path class="fil53" d="m8254 10448l8985-1183 102 25-9087 1158z"/>
     <path class="fil3" d="m8254 10448l9067-1163 101 24-9168 1139z"/>
     <path class="fil4" d="m8254 10448l9147-1144 100 25-9247 1119z"/>
     <path class="fil5" d="m8254 10448l9227-1124 97 25-9324 1099z"/>
     <path class="fil6" d="m8254 10448l9305-1104 96 25-9401 1079z"/>
     <path class="fil7" d="m8254 10448l9381-1084 94 25-9475 1059z"/>
     <path class="fil8" d="m8254 10448l9457-1064 92 26-9549 1038z"/>
     <path class="fil9" d="m8254 10448l9530-1043 91 26-9621 1017z"/>
     <path class="fil10" d="m8254 10448l9603-1023 88 26-9691 997z"/>
     <path class="fil11" d="m8254 10448l9674-1002 86 26-9760 976z"/>
     <path class="fil12" d="m8254 10448l9743-981 85 26-9828 955z"/>
     <path class="fil13" d="m8254 10448l9811-960 83 27-9894 933z"/>
     <path class="fil14" d="m8254 10448l9878-939 81 27-9959 912z"/>
     <path class="fil15" d="m8254 10448l9943-917 79 26-10022 891z"/>
     <path class="fil16" d="m8254 10448l10006-896 78 27-10084 869z"/>
     <path class="fil17" d="m8254 10448l10068-874 76 27-10144 847z"/>
     <path class="fil18" d="m8254 10448l10129-853 73 28-10202 825z"/>
     <path class="fil19" d="m8254 10448l10188-831 71 28-10259 803z"/>
     <path class="fil20" d="m8254 10448l10245-809 70 28-10315 781z"/>
     <path class="fil21" d="m8254 10448l10301-787 68 28-10369 759z"/>
     <path class="fil22" d="m8254 10448l10355-765 66 28-10421 737z"/>
     <path class="fil23" d="m8254 10448l10408-742 64 28-10472 714z"/>
     <path class="fil24" d="m8254 10448l10459-720 62 28-10521 692z"/>
     <path class="fil25" d="m8254 10448l10509-697 60 28-10569 669z"/>
     <path class="fil26" d="m8254 10448l10557-675 58 29-10615 646z"/>
     <path class="fil27" d="m8254 10448l10603-652 56 29-10659 623z"/>
     <path class="fil28" d="m8254 10448l10648-629 54 29-10702 600z"/>
     <path class="fil59" d="m8254 10448l10691-606 52 29-10743 577z"/>
     <path class="fil30" d="m8254 10448l10733-583 50 29-10783 554z"/>
     <path class="fil31" d="m8254 10448l10773-560 48 29-10821 531z"/>
     <path class="fil32" d="m8254 10448l10811-537 46 30-10857 507z"/>
     <path class="fil33" d="m8254 10448l10848-513 44 29-10892 484z"/>
     <path class="fil34" d="m8254 10448l10883-490 42 29-10925 461z"/>
     <path class="fil35" d="m8254 10448l10917-466 40 29-10957 437z"/>
     <path class="fil36" d="m8254 10448l10949-443 38 30-10987 413z"/>
     <path class="fil37" d="m8254 10448l10979-419 36 29-11015 390z"/>
     <path class="fil38" d="m8254 10448l11008-396 33 30-11041 366z"/>
     <path class="fil39" d="m8254 10448l11034-372 32 30-11066 342z"/>
     <path class="fil40" d="m8254 10448l11060-348 29 30-11089 318z"/>
     <path class="fil41" d="m8254 10448l11083-324 28 29-11111 295z"/>
     <path class="fil42" d="m8254 10448l11105-301 25 30-11130 271z"/>
     <path class="fil43" d="m8254 10448l11125-277 24 30-11149 247z"/>
     <path class="fil44" d="m8254 10448l11144-253 21 30-11165 223z"/>
     <path class="fil45" d="m8254 10448l11161-229 19 30-11180 199z"/>
     <path class="fil46" d="m8254 10448l11176-205 17 30-11193 175z"/>
     <path class="fil47" d="m8254 10448l11190-181 14 31-11204 150z"/>
     <path class="fil48" d="m8254 10448l11201-156 13 30-11214 126z"/>
     <path class="fil49" d="m8254 10448l11212-132 10 30-11222 102z"/>
     <path class="fil50" d="m8254 10448l11220-108 8 30-11228 78z"/>
     <path class="fil51" d="m8254 10448l11227-84 6 30-11233 54z"/>
     <path class="fil52" d="m8254 10448l11232-60 4 30-11236 30z"/>
     <path class="fil53" d="m8254 10448l11235-36 2 30-11237 6z"/>
     <path class="fil53" d="m8254 10448l11237-12v31l-11237-19z"/>
     <path class="fil3" d="m8254 10448l11237 13-2 30-11235-43z"/>
     <path class="fil4" d="m8254 10448l11235 37-4 30-11231-67z"/>
     <path class="fil5" d="m8254 10448l11232 61-7 30-11225-91z"/>
     <path class="fil6" d="m8254 10448l11227 85-9 30-11218-115z"/>
     <path class="fil7" d="m8254 10448l11220 109-11 30-11209-139z"/>
     <path class="fil8" d="m8254 10448l11212 133-13 30-11199-163z"/>
     <path class="fil9" d="m8254 10448l11201 157-14 31-11187-188z"/>
     <path class="fil10" d="m8254 10448l11190 182-17 30-11173-212z"/>
     <path class="fil11" d="m8254 10448l11176 206-19 30-11157-236z"/>
     <path class="fil12" d="m8254 10448l11161 230-21 30-11140-260z"/>
     <path class="fil13" d="m8254 10448l11144 254-23 30-11121-284z"/>
     <path class="fil14" d="m8254 10448l11125 278-25 29-11100-307z"/>
     <path class="fil15" d="m8254 10448l11105 302-27 29-11078-331z"/>
     <path class="fil16" d="m8254 10448l11083 325-29 30-11054-355z"/>
     <path class="fil17" d="m8254 10448l11060 349-32 30-11028-379z"/>
     <path class="fil18" d="m8254 10448l11034 373-33 30-11001-403z"/>
     <path class="fil19" d="m8254 10448l11008 397-36 29-10972-426z"/>
     <path class="fil20" d="m8254 10448l10979 420-38 30-10941-450z"/>
     <path class="fil21" d="m8254 10448l10949 444-40 29-10909-473z"/>
     <path class="fil22" d="m8254 10448l10917 467-42 30-10875-497z"/>
     <path class="fil23" d="m8254 10448l10883 491-44 29-10839-520z"/>
     <path class="fil24" d="m8254 10448l10848 514-46 29-10802-543z"/>
     <path class="fil25" d="m8254 10448l10811 538-48 29-10763-567z"/>
     <path class="fil26" d="m8254 10448l10773 561-50 29-10723-590z"/>
     <path class="fil27" d="m8254 10448l10733 584-52 29-10681-613z"/>
     <path class="fil28" d="m8254 10448l10691 607-54 29-10637-636z"/>
     <path class="fil29" d="m8254 10448l10648 630-56 28-10592-658z"/>
     <path class="fil30" d="m8254 10448l10603 653-58 28-10545-681z"/>
     <path class="fil31" d="m8254 10448l10557 676-60 28-10497-704z"/>
     <path class="fil32" d="m8254 10448l10509 698-62 28-10447-726z"/>
     <path class="fil33" d="m8254 10448l10459 721-64 28-10395-749z"/>
     <path class="fil34" d="m8254 10448l10408 743-66 28-10342-771z"/>
     <path class="fil35" d="m8254 10448l10355 766-68 27-10287-793z"/>
     <path class="fil36" d="m8254 10448l10301 788-70 27-10231-815z"/>
     <path class="fil37" d="m8254 10448l10245 810-72 27-10173-837z"/>
     <path class="fil38" d="m8254 10448l10188 832-74 27-10114-859z"/>
     <path class="fil39" d="m8254 10448l10129 854-76 27-10053-881z"/>
     <path class="fil40" d="m8254 10448l10068 875-77 27-9991-902z"/>
     <path class="fil41" d="m8254 10448l10006 897-79 27-9927-924z"/>
     <path class="fil42" d="m8254 10448l9943 918-82 27-9861-945z"/>
     <path class="fil43" d="m8254 10448l9878 940-84 26-9794-966z"/>
     <path class="fil44" d="m8254 10448l9811 961-85 26-9726-987z"/>
     <path class="fil45" d="m8254 10448l9743 982-87 26-9656-1008z"/>
     <path class="fil46" d="m8254 10448l9674 1003-89 26-9585-1029z"/>
     <path class="fil47" d="m8254 10448l9603 1024-91 25-9512-1049z"/>
     <path class="fil48" d="m8254 10448l9530 1044-92 26-9438-1070z"/>
     <path class="fil49" d="m8254 10448l9457 1065-94 25-9363-1090z"/>
     <path class="fil50" d="m8254 10448l9381 1085-95 25-9286-1110z"/>
     <path class="fil51" d="m8254 10448l9305 1105-98 25-9207-1130z"/>
     <path class="fil52" d="m8254 10448l9227 1125-99 25-9128-1150z"/>
     <path class="fil53" d="m8254 10448l9147 1145-101 24-9046-1169z"/>
     <path class="fil3" d="m8254 10448l9067 1164-103 25-8964-1189z"/>
     <path class="fil4" d="m8254 10448l8985 1184-105 24-8880-1208z"/>
     <path class="fil5" d="m8254 10448l8901 1203-106 24-8795-1227z"/>
     <path class="fil6" d="m8254 10448l8816 1222-108 24-8708-1246z"/>
     <path class="fil7" d="m8254 10448l8730 1241-109 23-8621-1264z"/>
     <path class="fil54" d="m8254 10448l8643 1260-111 23-8532-1283z"/>
     <path class="fil9" d="m8254 10448l8554 1278-113 23-8441-1301z"/>
     <path class="fil10" d="m8254 10448l8464 1296-115 23-8349-1319z"/>
     <path class="fil11" d="m8254 10448l8372 1314-115 23-8257-1337z"/>
     <path class="fil12" d="m8254 10448l8280 1332-118 22-8162-1354z"/>
     <path class="fil13" d="m8254 10448l8186 1350-119 22-8067-1372z"/>
     <path class="fil14" d="m8254 10448l8091 1368-121 21-7970-1389z"/>
     <path class="fil15" d="m8254 10448l7994 1385-121 21-7873-1406z"/>
     <path class="fil16" d="m8254 10448l7897 1402-123 21-7774-1423z"/>
     <path class="fil17" d="m8254 10448l7798 1419-125 21-7673-1440z"/>
     <path class="fil18" d="m8254 10448l7698 1436-126 20-7572-1456z"/>
     <path class="fil19" d="m8254 10448l7597 1452-127 20-7470-1472z"/>
     <path class="fil20" d="m8254 10448l7495 1468-129 20-7366-1488z"/>
     <path class="fil21" d="m8254 10448l7392 1484-131 20-7261-1504z"/>
     <path class="fil22" d="m8254 10448l7287 1500-131 19-7156-1519z"/>
     <path class="fil23" d="m8254 10448l7182 1516-133 19-7049-1535z"/>
     <path class="fil24" d="m8254 10448l7075 1531-134 19-6941-1550z"/>
     <path class="fil25" d="m8254 10448l6968 1546-136 19-6832-1565z"/>
     <path class="fil26" d="m8254 10448l6859 1561-137 18-6722-1579z"/>
     <path class="fil27" d="m8254 10448l6749 1576-138 18-6611-1594z"/>
     <path class="fil28" d="m8254 10448l6638 1590-139 18-6499-1608z"/>
     <path class="fil29" d="m8254 10448l6527 1604-141 17-6386-1621z"/>
     <path class="fil30" d="m8254 10448l6414 1618-142 17-6272-1635z"/>
     <path class="fil31" d="m8254 10448l6300 1632-143 16-6157-1648z"/>
     <path class="fil32" d="m8254 10448l6186 1645-145 17-6041-1662z"/>
     <path class="fil33" d="m8254 10448l6070 1658-146 16-5924-1674z"/>
     <path class="fil34" d="m8254 10448l5954 1671-147 16-5807-1687z"/>
     <path class="fil35" d="m8254 10448l5836 1684-148 15-5688-1699z"/>
     <path class="fil36" d="m8254 10448l5718 1696-149 16-5569-1712z"/>
     <path class="fil37" d="m8254 10448l5599 1709-150 14-5449-1723z"/>
     <path class="fil38" d="m8254 10448l5479 1720-151 15-5328-1735z"/>
     <path class="fil39" d="m8254 10448l5358 1732-152 14-5206-1746z"/>
     <path class="fil40" d="m8254 10448l5236 1743-153 14-5083-1757z"/>
     <path class="fil41" d="m8254 10448l5114 1755-154 13-4960-1768z"/>
     <path class="fil42" d="m8254 10448l4991 1765-155 14-4836-1779z"/>
     <path class="fil43" d="m8254 10448l4867 1776-156 13-4711-1789z"/>
     <path class="fil44" d="m8254 10448l4742 1786-157 13-4585-1799z"/>
     <path class="fil45" d="m8254 10448l4617 1796-158 13-4459-1809z"/>
     <path class="fil46" d="m8254 10448l4491 1806-159 12-4332-1818z"/>
     <path class="fil47" d="m8254 10448l4364 1816-159 11-4205-1827z"/>
     <path class="fil48" d="m8254 10448l4237 1825-161 11-4076-1836z"/>
     <path class="fil49" d="m8254 10448l4108 1834-160 11-3948-1845z"/>
     <path class="fil50" d="m8254 10448l3980 1843-162 10-3818-1853z"/>
     <path class="fil51" d="m8254 10448l3851 1851-163 10-3688-1861z"/>
     <path class="fil52" d="m8254 10448l3721 1859-163 10-3558-1869z"/>
     <path class="fil53" d="m8254 10448l3590 1867-163 10-3427-1877z"/>
     <path class="fil3" d="m8254 10448l3459 1875-164 9-3295-1884z"/>
     <path class="fil4" d="m8254 10448l3328 1882-165 9-3163-1891z"/>
     <path class="fil5" d="m8254 10448l3196 1889-166 8-3030-1897z"/>
     <path class="fil6" d="m8254 10448l3064 1896-167 8-2897-1904z"/>
     <path class="fil7" d="m8254 10448l2931 1902-167 8-2764-1910z"/>
     <path class="fil8" d="m8254 10448l2797 1908-167 8-2630-1916z"/>
     <path class="fil9" d="m8254 10448l2664 1914-168 7-2496-1921z"/>
     <path class="fil10" d="m8254 10448l2529 1920-168 6-2361-1926z"/>
     <path class="fil11" d="m8254 10448l2395 1925-169 6-2226-1931z"/>
     <path class="fil12" d="m8254 10448l2260 1930-169 6-2091-1936z"/>
     <path class="fil13" d="m8254 10448l2125 1935-170 5-1955-1940z"/>
     <path class="fil55" d="m8254 10448l1989 1939-170 5-1819-1944z"/>
     <path class="fil15" d="m8254 10448l1853 1943-170 5-1683-1948z"/>
     <path class="fil16" d="m8254 10448l1717 1947-170 5-1547-1952z"/>
     <path class="fil17" d="m8254 10448l1581 1951-171 4-1410-1955z"/>
     <path class="fil18" d="m8254 10448l1444 1954-171 4-1273-1958z"/>
     <path class="fil19" d="m8254 10448l1307 1957-171 3-1136-1960z"/>
     <path class="fil20" d="m8254 10448l1170 1960-171 3-999-1963z"/>
     <path class="fil21" d="m8254 10448l1033 1962-172 3-861-1965z"/>
     <path class="fil22" d="m8254 10448l895 1964-171 2-724-1966z"/>
     <path class="fil23" d="m8254 10448l758 1966-172 2-586-1968z"/>
     <path class="fil24" d="m8254 10448l620 1967-172 2-448-1969z"/>
     <path class="fil25" d="m8254 10448l483 1969-173 1-310-1970z"/>
     <path class="fil26" d="m8254 10448l345 1969-173 1-172-1970z"/>
     <path class="fil27" d="m8254 10448l207 1970h-172l-35-1970z"/>
     <path class="fil28" d="m8254 10448l69 1970h-172l103-1970z"/>
     <path class="fil29" d="m8254 10448l-69 1970h-172l241-1970z"/>
     <path class="fil30" d="m8254 10448l-207 1970-172-1 379-1969z"/>
     <path class="fil31" d="m8254 10448l-345 1969-172-1 517-1968z"/>
     <path class="fil56" d="m8254 10448l-482 1969-173-2 655-1967z"/>
     <path class="fil33" d="m8254 10448l-620 1967-172-1 792-1966z"/>
     <path class="fil34" d="m8254 10448l-758 1966-172-2 930-1964z"/>
     <path class="fil57" d="m8254 10448l-895 1964-172-2 1067-1962z"/>
     <path class="fil36" d="m8254 10448l-1033 1962-171-3 1204-1959z"/>
     <path class="fil37" d="m8254 10448l-1170 1960-171-4 1341-1956z"/>
     <path class="fil38" d="m8254 10448l-1307 1957-171-4 1478-1953z"/>
     <path class="fil39" d="m8254 10448l-1444 1954-171-4 1615-1950z"/>
     <path class="fil40" d="m8254 10448l-1581 1951-170-5 1751-1946z"/>
     <path class="fil41" d="m8254 10448l-1717 1947-170-5 1887-1942z"/>
     <path class="fil42" d="m8254 10448l-1853 1943-170-5 2023-1938z"/>
     <path class="fil43" d="m8254 10448l-1989 1939-169-5 2158-1934z"/>
     <path class="fil44" d="m8254 10448l-2125 1935-169-6 2294-1929z"/>
     <path class="fil45" d="m8254 10448l-2260 1930-168-6 2428-1924z"/>
     <path class="fil46" d="m8254 10448l-2395 1925-168-6 2563-1919z"/>
     <path class="fil47" d="m8254 10448l-2529 1920-168-7 2697-1913z"/>
     <path class="fil48" d="m8254 10448l-2663 1914-168-7 2831-1907z"/>
     <path class="fil49" d="m8254 10448l-2797 1908-167-7 2964-1901z"/>
     <path class="fil50" d="m8254 10448l-2930 1902-167-8 3097-1894z"/>
     <path class="fil51" d="m8254 10448l-3063 1896-166-9 3229-1887z"/>
     <path class="fil52" d="m8254 10448l-3196 1889-165-9 3361-1880z"/>
     <path class="fil53" d="m8254 10448l-3328 1882-164-9 3492-1873z"/>
     <path class="fil3" d="m8254 10448l-3459 1875-164-10 3623-1865z"/>
     <path class="fil4" d="m8254 10448l-3590 1867-163-10 3753-1857z"/>
     <path class="fil58" d="m8254 10448l-3721 1859-162-10 3883-1849z"/>
     <path class="fil6" d="m8254 10448l-3850 1851-162-10 4012-1841z"/>
     <path class="fil7" d="m8254 10448l-3980 1843-161-11 4141-1832z"/>
     <path class="fil8" d="m8254 10448l-4108 1834-160-11 4268-1823z"/>
     <path class="fil9" d="m8254 10448l-4236 1825-160-12 4396-1813z"/>
     <path class="fil10" d="m8254 10448l-4364 1816-158-12 4522-1804z"/>
     <path class="fil11" d="m8254 10448l-4491 1806-157-12 4648-1794z"/>
     <path class="fil12" d="m8254 10448l-4617 1796-156-12 4773-1784z"/>
     <path class="fil13" d="m8254 10448l-4742 1786-156-13 4898-1773z"/>
     <path class="fil14" d="m8254 10448l-4867 1776-155-13 5022-1763z"/>
     <path class="fil15" d="m8254 10448l-4991 1765-154-13 5145-1752z"/>
     <path class="fil16" d="m8254 10448l-5114 1755-153-14 5267-1741z"/>
     <path class="fil17" d="m8254 10448l-5236 1743-152-14 5388-1729z"/>
     <path class="fil18" d="m8254 10448l-5358 1732-151-14 5509-1718z"/>
     <path class="fil19" d="m8254 10448l-5479 1720-150-14 5629-1706z"/>
     <path class="fil20" d="m8254 10448l-5599 1709-148-16 5747-1693z"/>
     <path class="fil21" d="m8254 10448l-5718 1696-148-15 5866-1681z"/>
     <path class="fil22" d="m8254 10448l-5836 1684-147-16 5983-1668z"/>
     <path class="fil23" d="m8254 10448l-5953 1671-146-16 6099-1655z"/>
     <path class="fil24" d="m8254 10448l-6070 1658-144-16 6214-1642z"/>
     <path class="fil25" d="m8254 10448l-6185 1645-144-17 6329-1628z"/>
     <path class="fil26" d="m8254 10448l-6300 1632-142-17 6442-1615z"/>
     <path class="fil27" d="m8254 10448l-6414 1618-141-17 6555-1601z"/>
     <path class="fil28" d="m8254 10448l-6527 1604-139-18 6666-1586z"/>
     <path class="fil59" d="m8254 10448l-6638 1590-139-18 6777-1572z"/>
     <path class="fil30" d="m8254 10448l-6749 1576-137-19 6886-1557z"/>
     <path class="fil31" d="m8254 10448l-6859 1561-136-19 6995-1542z"/>
     <path class="fil32" d="m8254 10448l-6968 1546-134-19 7102-1527z"/>
     <path class="fil33" d="m8254 10448l-7075 1531-133-19 7208-1512z"/>
     <path class="fil34" d="m8254 10448l-7182 1516-132-20 7314-1496z"/>
     <path class="fil35" d="m8254 10448l-7287 1500-131-20 7418-1480z"/>
     <path class="fil36" d="m8254 10448l-7392 1484-129-20 7521-1464z"/>
     <path class="fil37" d="m8254 10448l-7495 1468-128-20 7623-1448z"/>
     <path class="fil60" d="m8254 10448l-7597 1452-127-21 7724-1431z"/>
     <path class="fil39" d="m8254 10448l-7698 1436-125-21 7823-1415z"/>
     <path class="fil40" d="m8254 10448l-7798 1419-124-21 7922-1398z"/>
     <path class="fil41" d="m8254 10448l-7897 1402-122-21 8019-1381z"/>
     <path class="fil42" d="m8254 10448l-7994 1385-121-22 8115-1363z"/>
     <path class="fil43" d="m8254 10448l-8091 1368-119-22 8210-1346z"/>
     <path class="fil44" d="m8254 10448l-8186 1350-117-22 8303-1328z"/>
     <path class="fil45" d="m8254 10448l-8280 1332-115-22 8395-1310z"/>
     <path class="fil46" d="m8254 10448l-8372 1314-114-22 8486-1292z"/>
     <path class="fil47" d="m8254 10448l-8464 1296-112-23 8576-1273z"/>
     <path class="fil48" d="m8254 10448l-8554 1278-111-23 8665-1255z"/>
     <path class="fil49" d="m8254 10448l-8642 1260-110-24 8752-1236z"/>
     <path class="fil50" d="m8254 10448l-8730 1241-108-24 8838-1217z"/>
     <path class="fil51" d="m8254 10448l-8816 1222-106-24 8922-1198z"/>
     <path class="fil52" d="m8254 10448l-8901 1203-104-24 9005-1179z"/>
     <path class="fil53" d="m8254 10448l-8984 1184-103-25 9087-1159z"/>
     <path class="fil3" d="m8254 10448l-9067 1164-101-24 9168-1140z"/>
     <path class="fil4" d="m8254 10448l-9147 1145-100-25 9247-1120z"/>
     <path class="fil5" d="m8254 10448l-9227 1125-97-25 9324-1100z"/>
     <path class="fil6" d="m8254 10448l-9305 1105-95-25 9400-1080z"/>
     <path class="fil7" d="m8254 10448l-9381 1085-94-25 9475-1060z"/>
     <path class="fil8" d="m8254 10448l-9457 1065-92-26 9549-1039z"/>
     <path class="fil9" d="m8254 10448l-9530 1044-91-26 9621-1018z"/>
     <path class="fil10" d="m8254 10448l-9603 1024-88-26 9691-998z"/>
     <path class="fil11" d="m8254 10448l-9674 1003-86-26 9760-977z"/>
     <path class="fil12" d="m8254 10448l-9743 982-85-26 9828-956z"/>
     <path class="fil13" d="m8254 10448l-9811 961-83-27 9894-934z"/>
     <path class="fil14" d="m8254 10448l-9877 940-82-27 9959-913z"/>
     <path class="fil15" d="m8254 10448l-9942 918-80-26 10022-892z"/>
     <path class="fil16" d="m8254 10448l-10006 897-77-27 10083-870z"/>
     <path class="fil17" d="m8254 10448l-10068 875-76-27 10144-848z"/>
     <path class="fil18" d="m8254 10448l-10128 854-74-28 10202-826z"/>
     <path class="fil19" d="m8254 10448l-10187 832-72-28 10259-804z"/>
     <path class="fil20" d="m8254 10448l-10245 810-70-28 10315-782z"/>
     <path class="fil21" d="m8254 10448l-10301 788-68-28 10369-760z"/>
     <path class="fil22" d="m8254 10448l-10355 766-66-28 10421-738z"/>
     <path class="fil23" d="m8254 10448l-10408 743-64-28 10472-715z"/>
     <path class="fil24" d="m8254 10448l-10459 721-62-28 10521-693z"/>
     <path class="fil25" d="m8254 10448l-10509 698-60-28 10569-670z"/>
     <path class="fil26" d="m8254 10448l-10557 676-58-29 10615-647z"/>
     <path class="fil27" d="m8254 10448l-10603 653-56-29 10659-624z"/>
     <path class="fil28" d="m8254 10448l-10648 630-54-29 10702-601z"/>
     <path class="fil59" d="m8254 10448l-10691 607-52-29 10743-578z"/>
     <path class="fil30" d="m8254 10448l-10733 584-50-29 10783-555z"/>
     <path class="fil31" d="m8254 10448l-10773 561-48-29 10821-532z"/>
     <path class="fil32" d="m8254 10448l-10811 538-46-30 10857-508z"/>
     <path class="fil33" d="m8254 10448l-10848 514-44-29 10892-485z"/>
     <path class="fil34" d="m8254 10448l-10883 491-42-29 10925-462z"/>
     <path class="fil35" d="m8254 10448l-10917 467-40-29 10957-438z"/>
     <path class="fil36" d="m8254 10448l-10949 444-37-30 10986-414z"/>
     <path class="fil37" d="m8254 10448l-10979 420-36-29 11015-391z"/>
     <path class="fil38" d="m8254 10448l-11007 397-34-30 11041-367z"/>
     <path class="fil39" d="m8254 10448l-11034 373-32-30 11066-343z"/>
     <path class="fil40" d="m8254 10448l-11060 349-29-30 11089-319z"/>
     <path class="fil41" d="m8254 10448l-11083 325-28-29 11111-296z"/>
     <path class="fil42" d="m8254 10448l-11105 302-25-30 11130-272z"/>
     <path class="fil43" d="m8254 10448l-11125 278-23-30 11148-248z"/>
     <path class="fil44" d="m8254 10448l-11144 254-21-30 11165-224z"/>
     <path class="fil45" d="m8254 10448l-11161 230-19-30 11180-200z"/>
     <path class="fil46" d="m8254 10448l-11176 206-17-30 11193-176z"/>
     <path class="fil47" d="m8254 10448l-11189 182-15-31 11204-151z"/>
     <path class="fil48" d="m8254 10448l-11201 157-13-30 11214-127z"/>
     <path class="fil49" d="m8254 10448l-11211 133-11-30 11222-103z"/>
     <path class="fil50" d="m8254 10448l-11220 109-8-30 11228-79z"/>
     <path class="fil51" d="m8254 10448l-11227 85-6-30 11233-55z"/>
     <path class="fil52" d="m8254 10448l-11232 61-4-30 11236-31z"/>
     <path class="fil53" d="m8254 10448l-11235 37-2-30 11237-7z"/>
     <path class="fil53" d="m8254 10448l-11237 13v-25l11237 12z"/>
    </g>
    <path class="fil2 str0" d="m8254 9056c4388 0 7946 623 7946 1392 0 770-3558 1393-7946 1393s-7946-623-7946-1393c0-769 3558-1392 7946-1392z"/>
   <path class="fil53 str1" d="m11076 18718c142 926 379 1180-503 1681-1091 620-3285 1003-4425 393-647-347-977-823-815-1486 490-2004 948-5988 937-7987-1-219-71-589-55-747 0-165 932-374 2095-374 1162 0 2115 209 2115 374 5 103-17 367-18 518-5 502-24 1070-32 1632-29 2081 387 3942 701 5996z"/>
</svg>