<?xml version="1.0" encoding="utf-8"?>
<!-- Generator: Adobe Illustrator 24.3.0, SVG Export Plug-In . SVG Version: 6.00 Build 0)  -->
<svg version="1.1" id="Layer_1" xmlns="http://www.w3.org/2000/svg" xmlns:xlink="http://www.w3.org/1999/xlink" x="0px" y="0px"
	 viewBox="0 0 512 512" style="enable-background:new 0 0 512 512;" xml:space="preserve">
<style type="text/css">
	.st0{fill:#19171C;}
</style>
<g id="XMLID_1_">
	<path id="XMLID_42_" class="st0" d="M157.73,127.2c1.54-0.42,3.23,0.14,4.77,0.56c2.25,0.28,4.63,0.56,6.74,1.54
		c0.98,0.42,1.82,1.26,2.67,1.96c1.26,1.12,2.95,1.54,4.49,2.11c1.82,0.7,3.79,0,5.61,0.42c0.42,0,0.84,0.28,0.7,0.84
		c0,3.79,1.26,7.3,2.67,10.81c0.98,2.67,1.96,5.47,2.53,8.28c0.56,2.95,1.26,5.75,1.96,8.56c0.84,3.65,1.54,7.3,2.53,10.81
		c0.98,3.65,1.96,7.3,2.53,10.95c0.42,2.53,0.42,5.05,1.4,7.44c2.67,7.16,2.81,14.88,5.33,21.89c0.42,1.4,0.98,2.67,1.54,4.07
		c0.7,1.4,1.96,2.39,2.53,3.79c0.56,1.4,0.28,3.09,0.28,4.63c-0.14,3.09,0.14,6.32,0.42,9.4c0.28,2.11,0.42,4.35,1.12,6.32
		c0.56,1.68,0.98,3.37,1.26,5.05c0.28,1.68,0.7,3.37,1.82,4.63c0.98,1.26,1.4,2.81,2.11,4.07s1.4,2.53,1.96,3.79
		c0.56,1.12,1.82,1.54,2.95,1.96c1.26,0.42,2.67,0.7,4.07,0.28c1.96-0.42,3.65-1.96,5.75-1.96c0.42,0,0.56,0.42,0.7,0.7
		c0.28,0.98-0.56,1.68-1.12,2.39c-1.26,1.12-2.95,0.98-4.49,1.26c-1.54,0.14-3.09,0.42-4.77,0.14c-4.63-1.12-9.26-1.96-13.89-1.96
		c-1.82,0-3.79,0-5.61,0.7c-1.68,0.56-3.09,1.54-4.49,2.53c-0.84,0.56-1.82,0.84-2.81,1.26c-1.54,0.84-3.51,1.54-5.33,1.26
		c-0.42,0-0.98-0.42-0.7-0.84c0.98-1.12,2.67-1.68,4.07-2.11c0.7-0.14,1.12-0.56,1.54-1.12c0.56-0.56,0.42-1.4,0.98-1.96
		c0.84-0.84,1.12-2.11,1.26-3.23c0.28-2.67,0-5.19-0.28-7.72c-0.28-1.96-0.98-3.79-1.4-5.75c-0.7-3.23-0.56-6.46-1.26-9.68
		c-0.98-4.63-1.54-9.4-2.67-14.03c-0.56-1.96-0.98-4.07-2.25-5.89c-1.12-1.54-2.95-2.25-4.77-2.95c-3.09-0.98-6.32-1.68-9.68-1.96
		c-3.09-0.28-6.18,0.42-9.12,1.26c-0.84,0.98-1.26,2.11-1.82,3.09c-1.12,2.39-1.96,4.91-3.23,7.3c-0.98,2.11-2.11,4.07-2.39,6.46
		c-0.28,2.11-1.12,4.07-2.11,5.89c-1.4,3.23-1.96,6.88-3.23,10.1c-1.4,3.65-3.37,7.16-6.32,9.68c-1.4,1.26-3.23,2.11-4.63,3.37
		c-1.54,1.4-3.09,2.95-5.05,3.79c-1.54,0.7-2.81,1.68-4.49,2.25c-2.25,0.84-4.63,1.26-7.02,1.82c-2.81,0.56-5.75,1.12-8.7,0.84
		c-3.23-0.42-6.46-1.4-8.84-3.65c-1.68-1.54-2.25-3.79-2.53-6.03c-0.28-1.4,0.14-2.81,0.14-4.35c0-1.82,0.84-3.65,2.39-4.63
		c1.12-0.7,2.53-0.98,3.79-0.56c0.7,0.28,1.12,0.84,1.54,1.4c0.28,0.56,0.7,1.12,0.56,1.68c-1.26-0.28-2.11-1.82-3.37-2.11
		c-0.84,0-1.4,0.56-1.68,1.26c-0.56,1.26-0.7,2.67-0.14,3.93c0.98,1.96,1.12,4.21,1.82,6.18c0.42,1.26,1.4,2.53,2.81,2.95
		c1.96,0.42,3.93,0.14,5.75-0.28c1.96-0.56,4.21-0.42,6.03-1.4c1.54-0.98,2.67-2.53,4.07-3.65c1.12-0.84,2.39-1.54,3.23-2.67
		c1.96-2.53,3.79-5.33,4.77-8.56c0.42-1.26,0.14-2.67,0.84-3.79c0.84-1.54,2.11-2.81,3.09-4.21c0.56-0.7,0.7-1.68,0.98-2.53
		c0.98-2.67,2.11-5.33,3.65-7.86c2.11-3.65,3.79-7.72,5.05-11.65c-2.95-0.14-6.03-0.42-8.84-1.82c-2.67-1.68-5.19-3.51-7.16-6.03
		c-1.4-1.68-2.53-3.79-2.95-6.03c0.56-0.14,1.12-0.28,1.54,0.28c0.84,0.84,0.84,2.11,1.68,2.95c0.98,1.12,2.39,1.82,3.51,2.81
		c2.11,0.7,4.49,0.7,6.74,0.14c3.37-0.98,6.32-3.09,9.54-4.35c0.7-1.26,0.98-2.53,1.4-3.79c1.82-5.47,3.37-11.09,6.32-16
		c1.12-2.11,1.82-4.35,2.53-6.6c0.42-1.68,0.28-3.37,0.98-5.05c0.84-1.82,2.11-3.37,2.95-5.19c1.26-2.53,2.25-5.33,3.09-8
		c1.4-4.21,2.39-8.42,3.37-12.77c0.42-1.82,0.42-3.93-0.42-5.75c-0.42-0.84-0.14-1.82-0.42-2.81c-0.28-0.84-0.42-1.82-0.98-2.53
		c-0.98-1.4-2.25-2.67-3.65-3.79c-1.68-1.12-3.37-2.39-5.47-2.39c-1.4,0-3.09,0.42-4.35-0.7
		C156.33,128.04,156.89,127.48,157.73,127.2z M174.57,162.01c-1.12,0.98-0.56,2.67-0.84,4.07c-1.12,5.33-2.67,10.67-4.21,15.86
		c-0.42,1.54-0.56,2.95-0.98,4.49c-0.28,1.12-1.12,2.11-1.54,3.23c-1.4,3.65-2.39,7.44-3.65,11.23c3.51,0,7.16,0.56,10.39,1.96
		c4.49,1.82,8.14,4.91,11.93,7.86c-1.12-4.35-1.26-8.84-2.81-12.91c-0.56-1.54-1.82-2.67-2.39-4.21c-0.84-2.81-0.28-5.89-0.84-8.7
		c-1.26-7.72-1.82-15.44-3.93-23.02C175.27,161.31,174.85,161.87,174.57,162.01z"/>
	<path id="XMLID_43_" class="st0" d="M262.71,154.57c0.98,0,1.68-0.84,2.67-0.84c1.26-0.14,2.81,0,3.79,0.98
		c0.84,0.98,2.25,1.96,1.96,3.37c-0.28,1.26-1.26,2.39-1.82,3.51c-0.7,1.26-2.11,1.82-3.51,2.25c-1.68,0.42-3.65,0.7-5.05,1.96
		c-1.26,0-2.53-0.7-3.51-1.54c-1.26-1.12-2.11-2.81-1.68-4.49c0.28-1.26,1.26-2.25,2.39-2.95
		C259.62,155.97,260.89,154.71,262.71,154.57z"/>
	<path id="XMLID_44_" class="st0" d="M323.06,159.62c2.39-0.28,4.77-0.28,7.02,0.56c1.4,0.56,2.81,1.26,4.07,2.25
		c0.56,0.42,1.26,0.84,1.54,1.54c0.56,0.84,0.7,1.82,0.98,2.81c0.42,1.26,0.42,2.81-0.14,4.07c-0.28,0.7-0.84,0.98-1.4,1.26
		c-1.4,0.7-2.81,1.4-4.35,1.4c-0.28,0-0.98,0-0.7-0.42c1.4-0.98,2.39-2.53,2.95-4.21c0.28-1.12,0.7-2.67-0.28-3.65
		c-0.98-0.98-2.11-2.11-3.65-2.25c-3.93,0.28-8,1.12-11.51,3.09c-2.67,1.54-4.91,4.07-6.18,6.88c-1.54,3.37-3.09,6.74-4.35,10.1
		c-0.56,1.68-0.7,3.37-1.26,5.05c-0.56,1.4-1.68,2.53-2.25,3.93s-0.98,2.95-1.54,4.49c-0.98,2.53-1.54,5.19-1.68,7.86
		c-0.14,2.95,0.7,5.75,0.98,8.56c0.42,5.75,2.39,11.37,4.49,16.7c0.56,1.68,1.4,3.37,2.39,4.77c1.96,2.67,4.49,4.77,6.6,7.3
		c1.12,1.26,2.39,2.53,3.37,3.79c0.7,0.98,1.68,1.82,2.95,2.11c2.11,0.42,4.35,0,6.46-0.7c3.37-0.98,6.74-2.53,9.54-4.63
		c2.39-1.68,4.63-3.51,6.74-5.61c1.12-1.12,2.25-2.25,2.81-3.79c0.7-1.68,1.26-3.51,1.26-5.47c0-1.4-1.26-2.81-0.56-4.21
		c0.56-0.14,1.12,0.28,1.54,0.7c0.84,1.12,1.4,2.39,1.96,3.65c0.98,2.53,1.68,5.19,1.4,7.86c-0.14,2.11-1.26,4.07-2.39,5.75
		c-0.42,0.56-0.84,1.12-1.4,1.4c-1.12,0.56-2.25,1.12-3.23,1.68c-0.84,0.56-1.54,1.4-2.39,1.82c-2.11,1.12-4.35,1.96-6.32,3.09
		c-3.23,1.68-6.74,2.95-10.39,2.95c-3.51,0-6.88-1.12-10.1-2.39c-3.65-1.4-7.3-2.81-10.39-5.19c-1.82-1.26-3.09-3.23-4.63-4.77
		c-4.77-4.77-8.56-10.67-10.81-17.12c-0.56-1.82-1.54-3.37-1.82-5.19c-0.98-4.77-0.56-9.82-0.28-14.6c0.28-5.05,1.68-9.96,3.65-14.6
		c1.4-3.37,2.95-6.74,4.77-9.82c3.51-5.75,8.14-10.95,13.75-14.74c1.26-0.84,2.67-1.68,4.07-2.25
		C317.3,161.03,320.11,160.04,323.06,159.62z"/>
	<path id="XMLID_45_" class="st0" d="M408.53,163.13c0.56-0.7,1.54-0.56,2.25-0.28c0.42,0.98,0.42,2.25-0.28,3.09
		c-0.7,0.7-1.68,1.26-2.39,1.96c-1.4,1.26-2.53,2.95-3.79,4.49c-1.26,1.68-2.11,3.65-3.65,5.19c-1.12,1.12-2.81,1.54-4.35,1.82
		c-5.05,0.7-10.25-0.14-15.3,0.28c-1.54,0.14-2.95,0.7-4.49,0.7c-2.25,0-4.63-0.56-6.74,0.14c-1.96,9.96,1.12,20.21-0.14,30.31
		c3.37-0.14,6.18-1.96,8.98-3.79c1.96-1.26,3.93-2.53,6.03-3.23c1.54-0.42,3.23-0.56,4.77-0.14c0.84,0.28,1.82,0.7,2.25,1.4
		c0.56,0.98,0.7,2.25,0.98,3.23c0.28,1.26,1.26,2.39,1.68,3.65c1.12,2.95,2.25,6.18,1.96,9.4c-0.7-0.14-1.4-0.42-1.68-1.12
		c-0.98-1.68-0.7-3.79-1.68-5.47c-0.56-0.98-1.96-1.26-3.09-1.26c-2.25,0.14-4.35,0.84-6.46,1.68c-4.49,1.82-9.4,2.39-13.61,4.77
		c0.28,4.07-0.28,8.14,0.28,12.07c0.14,1.54,1.26,2.81,1.4,4.35c0.28,2.81-0.84,5.47-0.42,8.14c3.79,0,6.46-3.23,9.96-3.65
		c1.54-0.28,3.23,0,4.77,0.28c1.12,0.28,2.25,0.42,3.23,0.98c1.4,0.56,2.67,1.54,4.21,1.68c1.82,0.28,3.65,0.14,5.47,0.56
		c3.51,0.98,6.6,2.81,10.25,3.51c1.82,0.28,4.07,0.28,5.61-0.98c1.54-1.12,2.81-2.67,3.65-4.49c0.84-2.53-0.98-4.91-0.28-7.44
		c0.56,0,1.12,0,1.54,0.42c0.7,0.84,0.7,1.96,1.12,2.95c0.56,1.54,1.26,3.23,0.56,4.91c-0.98,2.11-3.37,3.23-4.21,5.33
		c-0.42,1.26-1.12,2.25-1.68,3.51c-0.56,1.26-1.68,2.39-2.67,3.37c-0.56,0.56-1.26,0.98-2.11,0.98c-1.68,0-3.37-0.28-4.91-0.42
		c-3.23-0.42-6.6-0.98-9.82-1.68c-4.91-1.12-9.4-3.37-14.32-4.35c-8.28-1.68-16.98-0.7-24.84,2.11c-1.12,0.42-2.25,0.56-3.51,0.7
		c-1.12,0.14-1.96,1.12-3.09,1.26c-1.12,0.14-1.68-0.98-1.82-1.96c0-0.56-0.14-1.4,0.42-1.54c1.96-0.7,4.07,0.28,6.03-0.56
		c1.4-0.84,2.67-1.96,3.51-3.51c0.7-1.68,0.7-3.65,0.84-5.47c0.28-8.14,0.84-16.28,0.56-24.42c-0.14-2.67-0.84-5.19-0.84-7.72
		c0-1.96,0.56-3.93,0.7-5.89c0.14-2.25-0.28-4.35-0.56-6.6c-0.28-2.39-0.14-4.91-0.14-7.44c0-3.23,0-6.46-0.56-9.68
		c-0.28-1.4-0.42-2.95-1.4-4.07c-0.98-1.4-3.23-0.98-4.07-2.53c0.42-0.42,0.84-0.84,1.4-0.98c1.12-0.28,2.25,0.14,3.23,0.56
		c1.68,0.56,3.65,0.28,5.33,0c2.11-0.28,4.35-0.7,6.6-0.84c2.67-0.14,5.33,0,8-0.42c5.19-0.84,10.53-1.68,15.86-1.96
		c3.09-0.14,6.18-0.42,9.12-1.12c1.82-0.42,3.65-1.12,4.91-2.67C407.83,164.67,408.11,163.83,408.53,163.13z"/>
	<path id="XMLID_46_" class="st0" d="M222.15,164.82c3.09-0.7,6.03-1.4,9.26-1.26c1.82,0,3.37,0.98,5.19,0.98
		c0.84,0,1.82,0.14,2.25,0.98c-0.56,1.26-1.96,1.12-3.09,0.98c-1.68-0.28-3.65,0.14-4.91,1.54c-0.98,1.12-1.4,2.67-1.54,4.21
		c-0.56,3.09-0.7,6.32-0.56,9.54c0.28,4.49,2.53,8.98,1.68,13.47c-0.42,2.39,0,4.77,0.14,7.16c0.28,3.23,0.56,6.46,0.84,9.68
		c0.14,4.63,1.54,9.26,1.54,13.89c0,5.05,0.42,10.1,1.26,15.02c0.14,0.84,0.28,1.68,0.7,2.53c0.84,0.42,1.68-0.28,2.53-0.56
		c1.54-0.98,3.51-1.12,5.33-1.4c4.63-0.28,9.12,1.12,13.61,2.25c1.96,0.56,3.93,0.98,5.89,1.54c2.67,0.7,5.19,1.54,7.86,2.25
		c2.25,0.56,4.49,1.54,6.74,1.82c3.79,0.56,7.72,0.14,11.23-0.98c1.68-0.7,3.65-1.54,4.35-3.51c0.42-1.12,0.84-2.53,0.14-3.65
		c-0.56-0.84-1.54-1.54-1.54-2.67c1.12-0.14,2.39,0.28,3.09,1.26c0.98,1.68,1.12,3.65,1.26,5.47c0.14,0.42-0.14,0.7-0.28,1.12
		c-1.12,2.11-1.82,4.49-3.23,6.32c-0.7,1.12-1.82,1.96-2.95,2.53c-3.09,1.54-6.6,1.82-9.96,2.95c-1.26,0.42-2.81,0.42-4.07,0
		c-0.98-0.28-1.96-0.7-2.95-1.12c-1.12-0.42-2.39-0.56-3.65-0.98c-4.63-1.54-9.4-2.53-14.17-3.37c-4.49-0.84-8.98-1.96-13.61-2.25
		c-3.37-0.14-6.74,0-9.82,1.4c-2.81,1.12-5.33,2.81-8.42,3.37c-0.56,0.14-0.7-0.7-0.7-1.12c0.28-0.42,0.84-0.7,1.12-1.26
		c0.42-1.12,0.42-2.25,0.42-3.37c0-2.25-0.84-4.21-1.12-6.32c-0.56-3.65-0.98-7.44-0.98-11.09c0-3.23,0.42-6.46,0.14-9.68
		c-0.14-2.11-0.56-4.21-0.7-6.32c0.14-5.33-0.56-10.53-1.12-15.86c-0.56-5.61-0.42-11.37-0.98-16.98
		c-0.42-4.07-0.98-8.14-2.67-11.93c-0.56-0.98-1.12-2.25-2.39-2.53c-2.25,0.14-4.63,0.14-6.74-0.7c-0.98-0.42-1.96-0.98-2.39-1.96
		c-0.14-0.42,0.28-0.56,0.56-0.84c0.84-0.42,1.68,0,2.53,0.28c2.67,0.84,5.33,0.28,8,0C217.24,165.24,219.76,165.38,222.15,164.82z"
		/>
	<path id="XMLID_47_" class="st0" d="M249.66,172.81c-0.42-0.42-0.28-1.12,0.14-1.54c6.46,1.82,13.19,2.67,19.93,2.53
		c1.12,0,2.39,0,3.37,0.56c0.56,0.28,0.28,1.26-0.28,1.4c-1.26,0.28-2.53-0.28-3.65-0.42c-1.12,0.28-1.54,1.4-1.82,2.53
		c-0.42,2.39-0.14,4.77-0.28,7.16c-0.14,11.79,0.7,23.58,1.54,35.37c0.28,3.09,0.42,6.32,0.84,9.4c0.7,0.84,1.68,1.12,2.67,1.26
		c1.26,0.14,2.39-0.42,3.65-0.14c0.42,0.14,0.7,0.42,0.84,0.84c-0.98,1.26-2.67,1.26-4.07,1.4c-4.91,0.56-9.82,1.4-14.74,1.82
		c-1.26,0.14-2.67,0.28-3.79,0.98c-0.98,0.42-1.82,1.12-2.95,0.98c-0.28-0.14-0.84-0.28-0.98-0.56c0.14-1.12,1.4-1.54,2.39-1.82
		c1.26-0.42,2.67-0.56,3.51-1.68c0.56-1.12,0.42-2.53,0.42-3.65c-0.14-8.7,0-17.4-0.28-26.1c0-2.53-0.14-4.91-0.14-7.44
		c0-1.96,0.56-3.93,0-5.75c-0.42-1.68-1.12-3.23-1.26-4.91c-0.28-2.53,0.14-5.19-0.14-7.72c-0.14-0.98-0.42-2.11-1.12-2.81
		C252.18,173.52,250.64,173.66,249.66,172.81z"/>
	<path id="XMLID_48_" class="st0" d="M0.83,251.97c1.12-0.42,2.25-0.28,3.37-0.42c1.54,0,3.09-0.14,4.77,0
		c2.53,0.28,4.77,1.54,7.3,1.96c3.93,0.7,8.14,0.14,11.93,1.26c2.25,0.7,4.21,1.68,6.18,2.81c0.42,0.28,0.98,0.56,1.4,1.12
		c0.98,1.68,1.4,3.65,1.96,5.61c0.56,2.39,1.82,4.49,2.25,7.02c0.42,2.11,0.7,4.21,1.26,6.18c0.84,3.23,2.39,6.18,3.23,9.4
		c2.11,7.72,2.39,15.72,4.35,23.44c0.7,2.39,1.54,4.63,1.82,7.02c0.28,3.51,1.96,6.88,2.25,10.39c1.4-0.84,1.96-2.67,2.25-4.21
		c0.56-3.65,2.81-6.6,4.35-9.82c1.82-3.93,2.53-8.28,4.35-12.21c1.68-3.65,3.09-7.44,3.51-11.51c0.14-1.12,0.14-2.39,0.28-3.51
		c1.12-0.14,1.96,0.7,2.53,1.54c1.12,1.96,2.53,3.79,3.09,6.03c0.42,1.96,0.28,4.07,0.7,6.18c0.14,1.26,0.84,2.39,0.98,3.65
		c0.14,2.39,0.28,4.91,0.56,7.3c0.14,1.26,0.42,2.53,0.56,3.93c0.28,2.53,0.42,5.19,0.98,7.72c0.98,5.19,2.81,10.1,3.09,15.44
		c1.4-3.23,2.67-6.46,4.07-9.82c1.68-4.21,3.23-8.42,4.07-12.77c0.28-1.4,0-2.81,0.42-4.21c0.56-1.26,1.82-1.96,2.39-3.09
		c0.7-1.82,0.7-3.79,1.68-5.47c1.96-3.51,2.67-7.58,4.35-11.23c0.98-1.96,1.82-4.07,2.11-6.32c0.42-3.79,3.23-7.02,2.95-10.95
		c-0.42-2.25-1.68-4.21-3.09-5.89c-0.98-1.12-2.11-2.25-3.65-2.53c-0.98-0.14-2.53-0.42-2.67-1.68c0.7-0.42,1.54-0.14,2.25,0
		c2.67,0.42,5.05,1.96,7.3,3.37c2.81,1.68,5.47,3.37,8.42,4.49c2.25,0.84,4.63,1.26,7.02,1.26c3.09,0.14,6.32,0.28,9.26,0.84
		c0.7,0.14,1.4,0.28,1.96,0.7c0.14,0.28-0.14,0.56-0.28,0.84c-0.7,0.56-1.54,0.42-2.25,0.42c-1.82-0.14-3.65,0.28-5.33,0.7
		c-1.68,0.56-3.51,1.26-4.77,2.53c-3.93,6.18-6.32,13.05-8.84,19.93c-1.68,4.63-3.37,9.4-5.33,13.89c-0.7,1.54-1.82,2.95-2.25,4.77
		c-0.56,1.82-0.7,3.79-1.12,5.75c-0.56,3.09-1.68,5.89-1.96,8.98c-0.14,1.54,0.28,2.95-0.14,4.49c-0.42,1.26-1.4,2.25-1.96,3.51
		c-1.4,2.95-2.67,5.89-3.79,8.98c-1.4,3.93-3.09,7.72-4.49,11.65c-1.4,3.93-1.96,8.28-3.79,12.07c-0.84,1.82-1.68,3.79-1.82,5.89
		c-0.28,1.68-0.14,3.37-0.84,4.91c-0.14,0.56-0.84,0.42-1.26,0.42c-0.42,0-0.84-0.42-0.98-0.84c-0.42-1.26-0.56-2.53-0.84-3.65
		c-0.42-1.26-1.12-2.53-1.4-3.79c-0.98-4.35-1.26-8.84-2.25-13.33c-0.84-3.09-1.68-6.18-2.67-9.26c-0.84-2.53-1.96-4.91-2.67-7.58
		c-1.68-6.18-1.26-12.77-3.09-18.81c-1.12,2.11-1.54,4.49-2.11,6.74c-0.42,2.25-1.26,4.35-1.82,6.46c-0.56,1.82-0.7,3.79-1.12,5.61
		c-0.42,1.96-1.4,3.65-1.96,5.61c-0.56,2.11-0.84,4.21-1.4,6.32c-0.98,2.95-1.54,6.03-2.25,8.98c-0.28,1.4-0.98,2.81-1.12,4.35
		c0,1.26-2.11,1.26-2.53,0.14c-0.98-1.68-0.42-3.65-0.98-5.47c-0.56-2.11-1.54-4.07-1.96-6.18c-0.56-2.25-1.12-4.49-1.68-6.74
		c-0.56-2.11-1.12-4.21-1.54-6.18c-0.28-1.26-0.42-2.53-0.84-3.65c-1.54-3.51-1.68-7.44-2.53-11.23c-0.98-4.35-2.11-8.7-2.95-13.19
		c-0.7-3.23-1.4-6.32-2.25-9.54c-0.56-1.96-0.7-3.93-1.26-5.89c-0.42-1.82-2.11-3.23-2.53-5.19c-0.98-3.37-0.98-6.88-1.82-10.25
		c-0.7-2.81-1.4-5.61-2.39-8.28c-0.7-1.96-0.7-4.07-1.4-5.89c-1.26-3.37-1.82-6.88-3.09-10.1c-0.98-2.81-2.53-5.47-5.05-7.3
		c-1.68-1.26-3.93-1.82-6.03-2.11c-1.96-0.28-3.93-0.28-5.89,0.14c-1.68,0.28-3.51,1.12-5.33,0.56c-0.84-0.28-0.7-1.26-0.7-1.82
		C-0.16,252.81,0.12,252.25,0.83,251.97z"/>
	<path id="XMLID_49_" class="st0" d="M255.55,261.51c3.37-0.28,6.88,0.28,9.82,2.11c3.65,2.11,6.32,5.47,8.84,8.7
		c1.82,2.39,3.79,4.77,6.18,6.46c0.84-2.67,0.56-5.33,1.26-8c0.28-1.68,0.98-3.23,0.84-4.91c0-0.98-0.42-2.11-1.54-2.25
		c-0.84-0.28-1.82-0.42-2.11-1.4c0.28-0.7,1.26-0.84,1.96-0.84c2.67,0.14,5.33,0.28,7.86,0.98c0.7,0.28,1.4,0.42,1.96,0.98
		c-0.98,1.54-2.95-0.42-4.07,0.84c-0.42,0.56-0.7,1.26-0.98,1.82c-0.56,4.49-1.82,8.98-2.11,13.47c-0.14,0.7,0.14,1.4,0.14,2.11
		c0.14,0.84-0.42,1.54-0.56,2.39c-0.28,2.25,0,4.77,1.26,6.74c0.42,0.7,0.98,1.26,1.54,1.96c-0.56,0.28-1.26,0.56-1.82,0.28
		c-1.26-0.42-2.11-1.54-2.81-2.53c-1.26-1.82-2.53-3.65-3.93-5.33c-1.26-1.54-2.25-3.37-3.51-4.91c-0.98-1.26-2.25-2.39-3.37-3.65
		c-2.25-2.11-4.21-4.63-6.88-6.32c-0.7,5.61-0.42,11.37-0.84,16.98c0.56,0.7,1.54,0.98,2.39,1.12c1.4,0.28,2.95,0.28,3.93,1.4
		c-0.28,0.56-0.84,0.84-1.54,0.7c-3.51-0.84-7.3-0.14-10.81-0.14c-0.84,0-1.82-0.14-2.11-0.98l0.42-0.42
		c1.12-0.56,2.53-0.28,3.65-0.84c0.7-0.28,1.12-1.12,0.98-1.82c-0.14-2.11,0.14-4.07,0.28-6.18c0.28-3.23,0.7-6.6,0.56-9.82
		c-0.14-1.26-0.28-2.67-0.98-3.79c-0.42-0.7-1.12-1.26-1.26-1.96c-0.14-0.84-1.12-0.98-1.68-1.54
		C255.69,262.78,255.55,262.07,255.55,261.51z"/>
	<path id="XMLID_52_" class="st0" d="M469.02,264.18c3.93-0.42,7.86-0.84,11.65-0.28c1.82,0.28,3.79,0.7,5.19,1.96
		c1.12,0.84,2.25,1.82,3.51,2.67c3.65,2.67,7.02,5.89,10.25,9.12c1.26,1.26,2.39,2.67,3.51,4.07c1.26,1.54,2.67,2.95,3.51,4.77
		c1.12,2.39,1.82,4.91,2.67,7.44c0.42,1.54,1.12,2.95,1.4,4.49c0.84,3.23,1.12,6.46,1.26,9.68c0.14,0.84,0.14,1.82,0,2.67
		c-0.14,1.54,0.28,3.09-0.28,4.49c-3.09,7.58-7.16,14.74-11.51,21.75c-1.68,2.81-3.65,5.33-5.05,8.28
		c-1.82,3.65-3.93,7.16-6.32,10.53c-2.67,3.65-6.18,6.6-9.82,9.12c-1.96,1.4-4.07,2.95-6.32,3.93c-2.81,1.26-5.89,1.68-8.98,2.25
		c-1.54,0.28-3.23-0.14-4.91,0.28c-1.26,0.28-2.53,0.84-3.79,0.84c-4.77,0.42-9.54,0.84-14.17,1.82c-4.21,0.98-8.14,2.67-12.49,2.95
		c-0.7,0-1.4-0.98-0.84-1.54c0.98-0.98,2.39-0.98,3.65-1.54c2.81-1.12,5.61-2.11,8.28-3.65c1.26-0.7,2.67-1.12,3.79-1.96
		c1.26-0.98,1.96-2.53,2.39-4.07c0.84-3.09,0.84-6.32,0.98-9.4c0.14-2.67,0-5.19-0.14-7.86c-0.14-2.53,0.7-5.05,0.98-7.58
		c0.7-10.95,0.84-22.03,1.4-33.12c0.14-2.53,0.14-5.19,0.84-7.58c0.56-1.96,0-3.93,0.28-5.89c0.28-3.93,1.4-7.72,1.54-11.65
		c0.14-1.96,0-3.93-0.56-5.89c-3.79,0.14-7.58,0.84-11.37,1.12c-3.23,0.28-6.74,0.42-9.82-0.56c-0.7-0.28-1.54-0.42-2.11-0.98
		c-1.4-1.26-3.37-1.96-4.77-3.51c-0.7-0.7-1.26-1.54-1.12-2.53c2.11-0.14,4.07,0.84,5.89,1.68c2.11,0.98,4.63,0.98,7.02,0.7
		c2.67-0.28,5.33-0.7,7.86-1.26c1.96-0.42,4.07-0.84,6.03-1.4c1.82-0.42,3.51-0.98,5.33-0.98c1.96,0,3.79-0.7,5.61-1.12
		C462.56,265.16,465.65,264.46,469.02,264.18z M466.35,275.97c-0.98,3.51-1.12,7.16-1.26,10.81c-0.7,14.88-4.07,29.33-5.33,44.07
		c-0.42,5.19-0.56,10.39-0.7,15.58c-0.14,5.89-0.28,11.79,0.28,17.54c2.81,0.14,5.61-0.42,8.42-0.98c2.53-0.42,5.05-0.42,7.44-1.26
		c2.11-0.98,3.65-2.67,5.05-4.49c1.96-2.81,3.65-5.75,5.19-8.7c1.82-3.65,2.81-7.58,3.93-11.51c0.56-1.96,1.12-3.79,1.4-5.89
		c0.14-1.54,1.12-2.81,1.54-4.21c1.4-4.21,3.09-8.42,3.93-12.91c0.7-4.35,1.12-8.98-0.42-13.19c-0.42-1.26-1.26-2.25-2.11-3.37
		s-1.26-2.39-1.96-3.65c-0.7-1.54-1.54-3.09-2.39-4.63c-1.4-2.25-2.25-4.91-4.07-6.74c-2.25-2.39-5.19-4.07-8.28-5.19
		C473.37,276.25,469.86,275.69,466.35,275.97z"/>
	<path id="XMLID_53_" class="st0" d="M246.01,264.6c0.7-0.14,1.26-0.7,2.11-0.56c1.4,0.14,2.81-0.28,4.35,0.14
		c0.56,0.14,0.98,0.7,1.12,1.26c-1.68,0.98-3.79-0.14-5.61,0.28c0.14,9.12,0.98,18.1,2.11,27.09c1.82,0.84,3.93,0.14,5.61-0.56
		c0.98,0.56,1.68,1.54,1.54,2.67c-3.51,0.28-7.16,0-10.81-0.14c-2.25,0-4.35,0-6.6,0.42c-1.82,0.42-4.07,0.56-5.33-0.98
		c0.98-0.98,2.39-0.84,3.65-0.7c0.98,0,2.11,0.14,2.81-0.42c0.7-0.84,0.7-2.11,0.84-3.23c-0.14-7.44-1.12-14.88-1.96-22.31
		c0-0.56-0.42-0.98-0.98-1.12c-1.82-0.56-3.65,0.14-5.47-0.42c-0.7-0.28-0.84-0.98-0.84-1.54
		C237.17,264.32,241.66,265.44,246.01,264.6z"/>
	<path id="XMLID_54_" class="st0" d="M342.99,272.88c0.42-0.28,0.84-0.28,1.26-0.28c0.28,1.26-0.14,2.53-1.12,3.37
		c-1.54,1.12-3.51,1.54-5.33,2.11c-1.4,0.42-3.09,0.84-4.21,1.96c-1.4,3.79-1.4,8-1.68,12.07c-0.28,4.21,0.56,8.56,0.98,12.77
		c0.42,5.05-0.14,10.1,0.28,15.16c0.28,3.23,0.42,6.6,0.28,9.82c-0.28,4.35-0.84,8.84,0.84,12.91c1.82-0.56,3.93-0.7,5.89-0.56
		c2.67,0.28,5.19,1.12,7.72,1.96c3.51,0.98,7.02,2.11,10.39,3.79c2.11,1.12,4.21,2.25,6.46,2.81c3.65,0.84,7.3,1.4,11.09,1.12
		c2.11-0.14,4.35-0.42,6.18-1.68c1.12-0.84,1.4-2.39,2.39-3.23c0.7,0.42,0.84,1.26,0.84,2.11c0,1.68-0.7,3.37-1.4,4.91
		c-0.7,1.68-1.54,3.37-2.67,4.63c-0.84,0.98-2.39,1.26-3.65,1.4c-3.37,0.14-6.6-0.42-9.82-1.12c-3.37-0.84-6.6-2.11-9.96-3.23
		c-4.07-1.4-8.28-1.82-12.49-2.81c-3.51-0.84-6.88-1.96-10.53-2.67c-2.53-0.42-5.19-0.7-7.72-0.28c-2.39,0.42-4.91,2.11-7.3,1.12
		l0.42-0.56c0.98-0.7,2.11-1.12,2.81-2.11c0.42-0.56,0.7-1.26,0.7-1.96c0.28-2.11,0-4.35,0.14-6.6c0-2.81,0.42-5.61,0.42-8.42
		c0-1.4-0.7-2.53-0.84-3.93c-0.7-5.33,0.14-10.67,0.28-16c0.14-4.21-0.42-8.28-0.84-12.49c-0.42-5.33-0.42-10.53-0.42-15.86
		c0-1.54-0.28-3.37-1.4-4.63c-1.26-1.26-3.23-1.54-5.05-1.26c-1.82,0.28-3.79,0.98-5.19,2.25c-0.7,0.56-0.84,1.68-1.68,2.11
		c-0.28,0-0.84,0.14-0.84-0.14c-0.28-0.84,0.28-1.68,0.84-2.25c1.4-1.54,2.95-2.95,4.91-3.65c1.54-0.56,3.23-0.7,4.77-0.56
		c2.95,0.14,6.03,0.84,8.98,0.7c2.81,0,5.75-0.42,8.56-0.42c1.4,0,2.95,0,4.35-0.56C341.58,274.14,342.14,273.3,342.99,272.88z"/>
	<path id="XMLID_55_" class="st0" d="M378.91,280.18c2.11-0.84,4.49-0.7,6.6,0c1.82,0.7,3.37,1.68,4.91,2.67
		c2.81,1.68,5.61,3.65,8,5.89c3.93,3.79,7.02,8.56,9.68,13.33c3.09,5.75,5.61,11.79,8.28,17.68c0.7,1.4,1.26,2.81,2.11,4.21
		c1.12,1.68,2.53,3.23,3.65,4.91c0.7,1.12,0.84,2.53,1.26,3.79c0.42,1.54,0.98,2.95,1.68,4.35c0.42-0.7,0.56-1.54,0.84-2.25
		c0.84-3.65,0.98-7.58,1.26-11.37c0.14-1.4,0.14-2.81,0.42-4.21c0.42-2.11,1.26-3.93,1.54-6.03c0.98-4.77,1.96-9.68,1.82-14.6
		c0-1.82-0.14-3.65-1.26-5.19c-0.84-1.26-2.25-1.82-3.51-2.67c-0.84-0.56-1.26-1.26-1.82-2.11c-0.84-0.98-0.42-2.53,0.42-3.37
		c1.54,0.14,0.7,2.39,2.11,2.67c2.81,0.84,5.19,2.39,8,3.09c3.23,0.98,6.74,1.68,10.1,0.98c0.7-0.14,1.4-0.56,2.11-0.7
		c0.14,0.98,0,2.11-0.84,2.67c-1.68,0.98-3.65,0.98-5.47,1.54c-2.53,7.86-3.79,15.86-4.91,24c-0.28,2.39-1.12,4.77-1.4,7.16
		c-0.28,3.09-0.42,6.18-0.84,9.26c-0.42,3.37-0.7,6.74-1.68,9.82c-0.7,1.96-0.84,4.21-1.12,6.32c-0.42,4.07-0.42,8.28-0.28,12.35
		c0.14,1.4,0.28,3.09-0.84,4.21c-0.56,0-1.26-0.14-1.68-0.7c-0.56-0.7-0.84-1.54-1.26-2.39c-1.4-2.39-3.09-4.77-4.21-7.3
		c-0.42-1.12-0.56-2.39-1.12-3.51c-1.96-4.77-4.07-9.54-6.03-14.17c-1.26-2.81-2.53-5.61-3.79-8.28c-1.12-2.39-2.25-4.77-3.23-7.16
		c-1.4-3.23-2.95-6.32-5.05-8.98c-0.84,6.88-1.26,13.89-1.26,20.91c0,2.11-0.14,4.21,0.42,6.18c0.42,1.96,0,3.79-0.28,5.75
		c-0.14,1.54-0.42,3.09,0.42,4.49c0.84,1.26,2.39,1.4,3.51,2.53c0.42,0.42,0.56,0.84,0.56,1.4c-0.98,0.28-2.11,0-2.81-0.7
		c-0.98-0.84-2.25-1.54-3.51-1.68c-2.39-0.42-4.91-0.42-7.3-0.84c-1.26-0.28-2.53-0.7-3.23-1.68c-0.56-0.7-0.84-1.82-0.84-2.67
		c1.4,0.14,2.25,1.26,3.51,1.68c0.7,0.28,1.4,0.28,2.25,0.14c0.98-7.44,0.98-15.02,0.84-22.46c-0.14-7.16-0.42-14.17-0.56-21.33
		c0-3.23,0.56-6.6,0.14-9.82c-0.28-1.68-1.4-3.09-2.39-4.49c-2.11-2.53-3.79-5.47-6.03-7.86c-0.98-0.98-1.96-1.96-3.23-2.53
		c-1.82-0.84-3.93,0-5.89-0.28C377.09,281.3,377.93,280.6,378.91,280.18z"/>
	<path id="XMLID_56_" class="st0" d="M193.8,281.72c1.68-0.28,3.65-0.14,4.91,1.12c0.84,0.84,0.98,2.25,0.84,3.37
		c-0.56,0.14-1.26,0.28-1.82-0.14c-0.7-0.7-0.56-1.82-1.12-2.67c-0.28-0.42-0.98-0.42-1.4-0.28c-1.82,0.56-2.95,2.11-4.77,2.67
		c-1.54,0.56-3.09,0.84-4.49,1.68c-3.23,1.82-5.33,5.47-5.19,9.26c0.14,4.77,1.82,9.26,2.81,13.75c1.12,4.91,1.4,9.82,1.96,14.74
		c0.98,8.7,2.81,17.26,4.91,25.82c0.98,3.79,1.68,7.86,3.37,11.51c0.42,0.84,0.84,1.82,0.7,2.95c-0.14,0.56-0.84,0.84-1.4,0.56
		c-0.84-0.56-1.4-1.4-1.96-2.25c-2.11-3.51-5.05-6.6-7.58-9.96c-1.96-2.53-3.23-5.61-5.47-7.86c-1.12-1.26-2.11-2.67-3.09-4.07
		c-5.05-7.16-9.82-14.32-15.02-21.33c0,5.05-1.68,9.68-2.53,14.6c-0.28,1.54-0.42,3.09-0.28,4.63c0.28,2.53,0.98,4.91,0.56,7.44
		c-0.28,1.96-1.54,3.65-2.11,5.47c-1.4,4.49-0.84,9.26-1.68,13.75c-0.14,1.26-0.14,2.67,0.7,3.65c0.7,1.12,2.11,1.4,3.09,2.25
		c0.42,0.28,0.56,0.84,0.56,1.4c-0.84,0.28-1.68,0.14-2.39-0.14c-1.54-0.84-2.53-2.53-4.21-3.23c-2.25-1.12-4.91-1.12-7.44-1.12
		c-2.25,0-4.49,0-6.74-0.14c-1.12-0.14-2.39-0.42-3.23-1.4c0.14-0.56,0.7-0.98,1.4-0.7c1.68,0.56,3.37,0.56,5.05,0.42
		c1.68-0.14,3.37-0.84,4.35-2.25c0.98-1.54,1.26-3.23,1.54-5.05c0.42-2.67,0.56-5.47,0.98-8.14c1.68-8.98,3.37-18.1,3.65-27.23
		c0.14-5.33,0-10.81-1.82-15.86c-0.98-2.67-2.39-5.19-4.21-7.58c-1.12-1.4-2.25-2.81-3.93-3.37c-1.26-0.42-2.39,0.42-3.51,0.7
		c-0.56-0.7-0.14-1.82,0.14-2.53c0.14-0.42,0.56-0.42,0.98-0.7c2.25-0.84,4.91-0.42,7.02,0.56c2.39,1.12,4.77,2.53,6.88,4.21
		c2.95,2.39,5.33,5.33,7.72,8.28c3.65,4.63,7.02,9.26,10.1,14.17c0.42,0.7,1.12,1.26,1.68,1.96c1.26,1.96,2.11,4.07,3.23,6.03
		c1.4,2.11,2.81,4.07,4.49,5.89c-0.14-2.95-0.28-5.89-0.84-8.84c-0.28-1.4-0.84-2.81-1.12-4.21c-0.56-2.67-0.56-5.33-0.84-7.86
		c-0.42-4.49-1.68-8.7-2.39-13.05c-0.56-3.23-1.4-6.6-3.51-9.26c-1.82-2.25-4.77-3.51-7.72-3.65c-0.7,0-0.84-0.98-0.42-1.4
		c0.56-0.56,1.26-0.7,1.96-0.7c2.25-0.28,4.49-0.42,6.74,0s4.49,0.28,6.6-0.28c1.82-0.56,3.65-0.84,5.19-2.11
		c0.98-0.7,1.82-1.4,2.95-1.82C189.31,282.7,191.55,282.14,193.8,281.72z"/>
	<path id="XMLID_59_" class="st0" d="M354.21,287.9c1.4-0.98,2.95-2.11,4.77-2.39c3.23-0.42,6.32,0.56,9.12,2.25
		c2.67,1.54,5.19,3.65,8.14,4.91c1.26,0.56,2.67,0.7,3.79,1.26c1.26,1.12,1.54,2.95,1.54,4.49c-0.14,3.65-1.4,7.02-2.39,10.39
		c-1.12,3.93-1.12,8.14-0.84,12.21c0.14,2.53,0.28,5.05,1.12,7.3c0.7,1.96,1.82,3.65,3.23,5.19c0.7,0.7,1.96,0.42,2.53,1.26
		c0.28,0.42,0,0.84-0.28,1.12c-0.7,0.7-1.82,0.84-2.81,0.84c-1.12,0-2.11-0.84-2.95-1.4c-1.68-1.26-3.37-2.67-4.63-4.35
		c-1.12-1.4-1.12-3.37-1.96-4.91c-2.11,2.95-3.65,6.32-6.03,8.98c-1.96,2.39-4.49,4.35-7.58,4.91c-2.53,0.42-5.05,0.42-7.44-0.56
		c-2.53-0.98-4.77-2.53-6.74-4.35c-1.12-1.12-2.11-2.53-2.25-4.07c-0.14-1.82-0.14-3.65,0.14-5.33c0.28-1.96,0.56-3.93,1.12-5.89
		c0.42-1.26,1.4-1.96,2.25-2.95c0.98-1.12,2.11-2.25,3.51-2.95c2.25-1.12,4.63-1.96,7.16-2.53c1.12-0.14,2.25-0.56,3.23-1.12
		c1.68-0.98,3.79-1.54,5.61-2.39c1.54-0.7,2.81-1.96,4.07-3.23c1.12-1.26,1.54-2.95,2.25-4.49c0.28-0.56,0.56-1.4,0.28-2.11
		c-0.56-1.26-1.82-2.11-2.95-2.95c-3.23-2.11-6.46-4.21-10.25-5.05c-1.68-0.42-3.79-0.42-5.19,0.84c-0.98,0.84-1.82,1.96-2.53,3.09
		c-0.42,0.7-0.7,1.4-0.56,2.25c0.14,0.84,1.26,1.26,1.26,2.25c0.14,0.98-0.42,1.96-1.4,2.11c-0.98,0.14-1.96-0.56-2.53-1.26
		c-0.98-1.12-1.26-2.95-0.56-4.21c0.7-1.4,1.54-2.67,2.53-3.79C350.85,289.58,352.67,289.02,354.21,287.9z M366.85,313.44
		c-1.4,0.42-2.39,1.82-3.23,2.95c-1.12,1.82-1.96,3.93-3.23,5.61c-1.26-0.14-1.26-1.68-1.68-2.53c-0.14-0.42-0.7-0.42-1.12-0.56
		c-1.82-0.28-3.79,0.56-4.91,2.11c-0.98,1.4-0.98,3.37-0.14,4.77c0.84,1.4,2.25,2.39,3.37,3.37c0.98,0.84,2.11,1.82,2.53,3.23
		c2.11-2.39,4.21-4.91,6.46-7.16c1.54-1.54,3.37-2.95,4.49-4.91c0.84-1.4,1.12-3.09,0.98-4.63c0-0.7-0.56-1.12-0.98-1.54
		C368.81,313.44,367.83,313.02,366.85,313.44z"/>
	<path id="XMLID_62_" class="st0" d="M294.29,299.97c3.09-0.28,6.03-1.54,9.26-1.68c1.4,0,2.81,0,4.07,0.42
		c1.82,0.84,3.37,2.11,4.49,3.65c1.68,1.96,2.81,4.21,4.77,5.89c0.56,0.56,0.84,1.26,0.84,1.96c-0.98,0.14-2.25,0.14-3.09,0.84
		c-1.26,0.84-1.82,2.25-2.81,3.37c-1.68,1.96-2.11,4.77-3.51,7.02c-1.54,2.39-4.35,3.23-6.46,4.91c1.4,3.51,1.54,7.16,2.25,10.81
		c0.42,2.95,1.4,5.61,2.39,8.42c1.26,3.79,2.53,7.72,4.35,11.37c0.42,0.7,0.98,1.82,1.82,1.96c1.82-0.14,3.65,0.14,5.61-0.14
		c1.12-0.14,1.96-1.12,3.09-1.4c0.42-0.14,0.98,0,1.4,0.28c0,0.7-0.28,1.26-0.84,1.54c-1.4,0.84-3.09,0.84-4.77,1.12
		c-3.37,0.42-6.74,1.4-10.25,1.26c-2.11-0.14-4.35-0.7-5.61-2.53c-0.56-0.84-1.26-1.68-1.82-2.67c-0.56-0.98-0.56-1.96-0.7-2.95
		c-1.4-4.07-1.82-8.42-3.37-12.35c-1.12-2.67-0.7-5.61-0.98-8.42c-0.14-1.4-0.28-2.95-0.98-4.21c-0.42-0.28-0.98-0.14-1.4,0
		c-1.12,0.28-1.12,1.54-1.26,2.39c-0.42,4.63-1.26,9.4-1.12,14.17c0.7,1.12,2.25,0.84,3.23,1.68c0.42,0.56-0.14,1.4-0.84,1.26
		c-1.68-0.14-3.09-0.98-4.77-1.26c-1.54-0.28-3.09,0.28-4.49,0c-1.12-0.14-2.11-0.56-3.23-0.42c-1.26,0-2.53,0.28-3.65,0
		c-0.7-0.14-0.98-1.26-0.42-1.68c0.7-0.28,1.4,0.28,2.11,0.28c1.12-0.7,1.82-1.96,2.11-3.37c0.56-2.25,0.42-4.49,0.7-6.74
		c0.42-3.09,0.7-6.32,1.26-9.4c0.28-2.11,0.84-4.35,0.56-6.6c-0.42-1.68,0.14-3.51,0.56-5.19c0.84-3.51,1.82-7.16,0.98-10.67
		c-0.14-1.4-1.4-2.25-2.67-2.53c-0.28,0-0.56-0.42-0.56-0.7l0.7-0.28c2.95-0.28,5.89-0.14,8.98,0.28
		C291.34,299.83,292.88,300.11,294.29,299.97z M292.88,303.34c0,2.25,0,4.35-0.14,6.6c-0.28,5.19-1.4,10.39-1.54,15.58
		c2.11,0,4.35-0.56,6.03-1.96c1.4-1.12,2.39-2.67,3.09-4.21c1.82-3.93,2.39-8.42,4.49-12.35
		C301.73,304.32,297.23,302.77,292.88,303.34z"/>
	<path id="XMLID_63_" class="st0" d="M276.18,298.56c0.42,0,0.7-0.14,1.12,0.14c-0.84,3.79-3.23,7.16-3.93,11.09
		c-0.28,1.26-0.56,2.95-1.82,3.79c-1.54,0.56-3.23,0.42-4.77,0.42c-4.63,0-9.12-0.84-13.61-1.12c0.14,3.93,0.56,7.86,0.14,11.79
		c2.39-0.7,4.35-2.25,6.74-3.09c1.26-0.42,2.53-0.7,3.93-0.56c1.96,0.14,3.93,1.26,5.19,2.67c0.7,0.7,1.4,1.68,1.4,2.81
		c0,0.98-0.14,1.96-0.84,2.67c-0.98,0.98-2.39,1.54-3.37,2.81c-0.7,0.84-1.4,1.96-2.67,1.82c-0.14-1.12,0.56-1.96,1.4-2.67
		c0.98-0.84,1.54-2.11,1.68-3.23c-2.53,0.14-4.77,1.4-7.02,2.39c-2.11,0.84-4.07,1.96-6.18,3.09c0,2.95,0.28,5.89,0.56,8.84
		c3.51,0.98,7.16,0.7,10.67,1.12c1.12,0.14,2.67,0.7,3.65-0.14c1.26-1.26,1.26-3.09,2.11-4.49c0.28-0.56,1.4-0.56,1.54,0.28
		c0.14,0.98-0.42,1.96-0.7,2.81c-0.84,1.54-0.56,3.37-0.56,5.05c0,1.26,0.14,2.67-0.7,3.65c-0.84,0.56-1.96,0.84-2.95,0.84
		c-1.54,0-2.95-0.56-4.49-0.84c-1.68-0.28-3.51,0-5.19-0.42c-3.37-0.7-6.88-2.11-10.39-1.68c-2.81,0.28-5.47,1.12-8.28,1.12
		c-1.12,0-2.39-0.28-3.09-1.26c-0.42-0.42-0.28-1.12-0.14-1.68c1.68,1.12,3.93,1.12,5.75,0.56c0.7-0.28,1.54-0.56,1.68-1.4
		c0.28-2.11,0.56-4.21,1.54-6.18c0.28-5.05,0.98-10.1,0.7-15.16c0-1.4-0.7-2.67-0.84-4.07c-0.28-2.53,0.28-4.91,0.28-7.3
		c0-1.26-0.28-2.67-1.26-3.79c-0.28-0.42-0.98-0.56-1.4-0.7c-1.4-0.42-3.09-0.98-3.93-2.39c3.37-0.7,6.74,0.84,10.1,0.56
		c3.23-0.42,6.6,0.42,9.82,0c1.96-0.28,3.93-0.56,5.89-0.42c2.25,0,4.77,0.28,6.88-0.7c1.26-0.56,1.96-1.82,2.81-2.95
		C274.08,300.81,275.48,299.97,276.18,298.56z"/>
	<path id="XMLID_66_" class="st0" d="M185.1,299.83c-0.28-0.84,0.98-1.54,1.54-0.84c0.28,0.7,0.56,1.4,1.26,1.82
		c1.26,0.98,2.95,0.84,4.49,0.98c3.09,0.42,6.03,1.4,8.98,1.82c5.33,0.7,10.67-0.7,16,0c2.25,0.28,4.35,1.26,6.6,1.82
		c1.26,0.42,2.53,0.56,3.51,1.4c1.54,1.26,2.39,3.09,3.37,4.77c1.96,2.67,3.51,5.61,5.47,8.28c1.26,1.54,2.81,2.81,3.93,4.35
		c0.28,0.42,0.28,0.98,0,1.4c-0.56,0.7-1.4,1.12-1.96,1.82c-2.39,2.95-4.07,6.6-6.03,9.82c-1.82,2.81-2.39,6.32-4.21,9.12
		c-0.56,0.84-1.54,0.98-2.39,1.54c-1.68,0.98-3.23,2.11-4.91,2.67c-2.25,0.84-4.49,0.56-6.88,0.56c-5.61,0.14-10.95,1.54-16.42,2.39
		c-1.4,0.28-2.81,0.7-4.07,0.28c-0.98-0.14-1.4-1.12-1.26-2.11c1.54-0.28,2.95,0.28,4.49,0c1.12-0.28,2.11-1.26,2.25-2.39
		c0.56-2.67,0.42-5.47,0.28-8.14c0-4.77,0.14-9.54-0.42-14.32c-0.14-2.95-0.98-5.89-1.26-8.98c-0.28-3.23-0.42-6.6-0.56-9.82
		c-2.81-1.96-6.18-3.23-8.98-5.19C186.78,302.49,185.52,301.37,185.1,299.83z M208.82,309.79c-0.28,2.39,0,4.77,0.14,7.16
		c0.14,2.67,0,5.19,0.56,7.86c0.56,2.25-0.14,4.63-0.28,6.88c-0.42,5.19-0.7,10.39-0.28,15.44c2.39,0,4.63-1.12,6.18-2.95
		c1.82-1.96,2.95-4.49,4.49-6.6c1.82-2.39,4.21-4.21,5.61-6.74c1.12-1.82,2.53-3.51,3.93-5.19c-0.98-2.39-2.11-4.63-3.37-6.88
		c-1.54-2.67-3.65-5.05-6.32-6.74c-3.09-1.96-6.88-2.67-10.53-2.67L208.82,309.79z"/>
	<path id="XMLID_69_" class="st0" d="M127.14,305.3c1.12,0,1.82,1.12,2.39,1.96c1.82,3.09,5.05,4.91,7.58,7.44
		c2.53,2.39,5.19,4.77,6.6,8c1.54,3.37,1.54,7.3,1.12,10.95c-0.28,2.39-0.56,4.77-0.56,7.16c-0.14,4.35-0.98,8.7-3.37,12.35
		c-1.96,3.09-4.77,5.61-7.86,7.72c-0.98,0.7-1.82,1.54-2.67,2.53c-0.7,0.84-1.4,1.82-1.68,2.95c-0.14,0.7-0.28,1.54-0.84,1.96
		c-0.42,0.28-0.98,0.14-1.4-0.14c-1.26-0.84-2.25-2.25-3.37-3.23c-4.07-3.79-9.12-6.32-13.19-9.96c-0.98-0.84-2.11-1.82-2.81-2.95
		c-1.26-1.96-1.82-4.35-2.39-6.6c-0.98-4.07-1.96-8-2.39-12.07c-0.28-3.37,0.28-7.02,2.11-9.96c0.84-1.4,1.96-2.67,3.09-3.79
		c1.96-1.96,3.79-4.07,5.61-6.03c0.84-0.84,1.68-1.82,2.95-2.53c3.37-1.68,7.02-3.23,10.25-5.19
		C126.58,305.44,126.86,305.3,127.14,305.3z M120.96,313.44c-1.26,0.42-2.39,1.4-3.51,2.25c-1.12,0.98-2.53,1.68-3.79,2.39
		c-1.12,0.7-2.39,1.54-2.81,2.95c-0.42,1.96,0,3.93,0.28,5.89c0.28,2.25,0,4.49,0.28,6.74c0,0.84,0.42,1.68,0.56,2.39
		c0.28,3.09-0.14,6.03,0.28,9.12c0.42,1.68,1.54,3.09,2.81,4.35c2.95,2.67,6.74,4.07,9.82,6.6c0.7,0.56,1.12,1.4,1.68,2.11
		c0.42,0.56,1.26,0.7,1.82,0.42c1.12-0.7,1.96-1.96,2.67-3.09c1.68-2.53,3.51-5.19,3.65-8.28c0.14-3.23-0.42-6.6,0-9.82
		c0.28-2.67,0.7-5.33,0.84-8c0-1.68,0-3.51-0.7-5.05c-0.7-1.54-1.68-2.95-2.67-4.21c-2.11-2.67-5.05-4.63-8.14-6.03
		C123.07,313.58,121.94,313.02,120.96,313.44z"/>
</g>
</svg>
